/* XPM */
static char *close_pressed[] = {
/* columns rows colors chars-per-pixel */
"20 20 93 2 ",
"   c #070D14",
".  c #122437",
"X  c #13263A",
"o  c #14273B",
"O  c #14283C",
"+  c #14283D",
"@  c #3C3B37",
"#  c #3C3B38",
"$  c #3C3C38",
"%  c #3D3C38",
"&  c #3E3D39",
"*  c #3D3E3D",
"=  c #3C3E3E",
"-  c #3D3F3E",
";  c #403F3A",
":  c #41403B",
">  c #45433E",
",  c #172C42",
"<  c #172D44",
"1  c #182F48",
"2  c #183048",
"3  c #19314A",
"4  c #3D474E",
"5  c #3E464E",
"6  c #3E4E5E",
"7  c #3E4F60",
"8  c #3F5265",
"9  c #3F5D7B",
"0  c #3F5F7F",
"q  c #424342",
"w  c #444542",
"e  c #424544",
"r  c #4B4941",
"t  c #4C4942",
"y  c #4C4B45",
"u  c #504E46",
"i  c #515048",
"p  c #55534C",
"a  c #58564F",
"s  c #424C54",
"d  c #455868",
"f  c #45586A",
"g  c #43586D",
"h  c #336497",
"j  c #3D6691",
"k  c #3E6690",
"l  c #386EA5",
"z  c #3D73AC",
"x  c #3E74AD",
"c  c #3E78B6",
"v  c #3F79B7",
"b  c #3F7AB9",
"n  c #406080",
"m  c #406282",
"M  c #416486",
"N  c #456585",
"B  c #436688",
"V  c #4079B4",
"C  c #407CBC",
"Z  c #407DBD",
"A  c #417FC0",
"S  c #417FC1",
"D  c #5580AC",
"F  c #5480AD",
"G  c #4280C3",
"H  c #4281C3",
"J  c #4383C6",
"K  c #4383C8",
"L  c #4384C8",
"P  c #4485CA",
"I  c #4486CA",
"U  c #4486CB",
"Y  c #4588CD",
"T  c #468AD0",
"R  c #468BD0",
"E  c #478CD4",
"W  c #488DD3",
"Q  c #488ED7",
"!  c #488FD7",
"~  c #4A91D9",
"^  c #4E93DA",
"/  c #4F93DA",
"(  c #5592D2",
")  c #5D99D5",
"_  c #5295DB",
"`  c #5296DB",
"'  c #5396DB",
"]  c #5698DC",
"[  c #5A99DA",
"{  c #5B9ADB",
"}  c #5A9ADC",
"|  c #5E9DDD",
" . c #5F9DDD",
/* pixels */
"a a a a p p a a a a p a a a a a a a a a ",
"p p p y > 4 % % @ @ # % # # * e y p p p ",
"i i q 4 j x v v V v v v v v x j 4 q i i ",
"u w 7 v b v v V b v v v v b v v V 6 w u ",
"t * v b Z Z C C b b b b b b S b Z V * r ",
"> 8 H Z H Z H Z J S J S J S S H Z S f : ",
": 9 H H H H H H J S H H S J J H H S 9 : ",
": 0 J J J J h O S J J S O h J J L J n & ",
"& n U U L L K 2 . H H . 2 L L U Y U m & ",
"& m U Y Y Y Y Y 1 . . 2 L Y Y Y Y Y m $ ",
"% m R R R R R R J     L R R R R Y R M @ ",
"% M E E E R R Y X 1 2 X Y E E E E R M @ ",
"@ M E Q ~ ! R O 3 E E < + R ! ! Q Q N # ",
"@ B ~ ~ ~ ~ l , R ~ ~ E , l ~ ~ ~ ~ B # ",
"# N / / ^ ^ ^ ^ ^ ^ ~ / / / / / / / N @ ",
"# g ' ' ` ` ` ` ` ` ' ' ' ' ' ' ' ' f @ ",
"# * ( ] ] ] ] ] ] ] ] ] ] ] ] ] ] ( * & ",
"& * f [ } } } } { { } } } } | } { f * @ ",
"# @ * s V ) | |  . . .)  .| ) D s * @ @ ",
"# @ @ # > # @ @ @ @ @ ; & @ @ * @ @ @ @ "
};
