/* XPM */
static char *close_focus[] = {
/* columns rows colors chars-per-pixel */
"20 20 81 1 ",
"  c #070D14",
". c #132538",
"X c #132639",
"o c #14273B",
"O c #15293E",
"+ c #3C3B37",
"@ c #3C3B38",
"# c #3C3C39",
"$ c #3C3F3D",
"% c #3C3F3E",
"& c #3E403F",
"* c #41403B",
"= c #45433D",
"- c #45433E",
"; c #162B41",
": c #172D43",
"> c #182F47",
", c #182F48",
"< c #19324C",
"1 c #1A334D",
"2 c #3D464E",
"3 c #3E4F5F",
"4 c #3E5062",
"5 c #3F5266",
"6 c #454643",
"7 c #424544",
"8 c #444544",
"9 c #4B4941",
"0 c #4C4942",
"q c #4C4B45",
"w c #504E46",
"e c #515048",
"r c #55534C",
"t c #58564F",
"y c #424E55",
"u c #44596B",
"i c #46596B",
"p c #455A6E",
"a c #405E7D",
"s c #3E6A96",
"d c #35679B",
"f c #3A6FA6",
"g c #3A70A7",
"h c #406181",
"j c #406283",
"k c #416384",
"l c #416486",
"z c #466686",
"x c #446789",
"c c #547FAC",
"v c #407BB7",
"b c #427CBB",
"n c #407DBD",
"m c #417EBE",
"M c #417FC0",
"N c #5380AD",
"B c #4382C5",
"V c #4383C5",
"C c #4385CA",
"Z c #4485C8",
"A c #4486CA",
"S c #4586CB",
"D c #4587CB",
"F c #4486CC",
"G c #4688CE",
"H c #468AD0",
"J c #468BD1",
"K c #478CD4",
"L c #4A8ED4",
"P c #488ED6",
"I c #4990D9",
"U c #4C92DA",
"Y c #5592D2",
"T c #5A95D1",
"R c #5094DA",
"E c #5396DB",
"W c #5698DC",
"Q c #5798DC",
"! c #5A99DA",
"~ c #5A9ADC",
"^ c #5D9CDD",
/* pixels */
"tttttttttttttttttttt",
"rrrq7&+++++@++&7wret",
"ee8yNT^^^^^^^^Tcy7ew",
"w6i!~~~!!~~~~~~!!i8w",
"0&YWWWWWW~R!W~WWQY&0",
"-pWRWRWRWRWWEEWREEi-",
"*zRRRRRRRURUUWRURRx*",
"*xUUUUf:LUUL:gUUURx*",
"#xIUIUP1oJJ.<IIIIIl@",
"#lIKKPPJ<..<KKKLIKl@",
"#lJKKKKKS  SKKKKJKl+",
"+jJJGJGC.,>.CJJJJGl+",
"+jGGGGB.>DDO.CGGGGj+",
"+jCSSCdOVAAB;dSCSGh+",
"+aCZVSZSCZCSZZSZCVa+",
"+5VVVZVVVVVVBBBZVV5@",
"+&nBBBBBBBnVVmVnVv$@",
"+$4nnnBnBmnnnBVnn3@+",
"++$2svvnnnnnnnvs2$@+",
"++++&+++++++$++$@+++"
};
