/* XPM */
static char *close[] = {
/* columns rows colors chars-per-pixel */
"20 20 53 1 ",
"  c #A1A1A0",
". c gray67",
"X c #ABACAC",
"o c gray68",
"O c #AEAEAE",
"+ c #AFB0AF",
"@ c #B2B2B2",
"# c gray70",
"$ c gray71",
"% c #B6B6B6",
"& c #B7B6B6",
"* c #B6B7B7",
"= c #B9B8B8",
"- c #B8B9B9",
"; c #BAB9BA",
": c gray73",
"> c #BBBBBB",
", c #BCBBBC",
"< c #BDBCBD",
"1 c #BFBFBE",
"2 c #BFBEBF",
"3 c #BEBFBF",
"4 c gray75",
"5 c #BFC0BF",
"6 c #C0C0C0",
"7 c #C0C0C1",
"8 c gray76",
"9 c #C3C4C3",
"0 c gray77",
"q c #C5C5C5",
"w c #C6C6C6",
"e c #C7C7C6",
"r c #C8C8C8",
"t c #C8C8C9",
"y c #CACACA",
"u c #CBCBCB",
"i c gray80",
"p c #CDCDCD",
"a c #CFCFCE",
"s c gray81",
"d c #D0D1D0",
"f c gray82",
"g c #D2D2D2",
"h c #D2D3D2",
"j c LightGray",
"k c gray83",
"l c #D5D5D5",
"z c gray84",
"x c #D7D7D7",
"c c gray85",
"v c gray86",
"b c #DCDCDD",
"n c gray87",
/* pixels */
"$$$$$$$$$$$$$$$$$$$$",
"********************",
"====================",
";;;;;;;;;;;;;;;;;;;;",
",,,,,,,6>%%>6,,,,,,,",
"<<<<<2:0lnnl0:2<<<<<",
"33333-innnnnni-33333",
"666667bbbbbbbb766666",
"8888%fvvvvvvvvf%8888",
"9999XxccccccccxX9999",
"qqqq.lxxxxxxxxl.qqqq",
"eeee@uzzzzzzzzu@eeee",
"tttt4&kkkkkkkk&4tttt",
"yyyyy+5hhhhhh5+yyyyy",
"uuuuurO#wssw#Oruuuuu",
"ppppppp1o  o1ppppppp",
"aaaaaaaaaaaaaaaaaaaa",
"dddddddddddddddddddd",
"gggggggggggggggggggg",
"jjjjjjjjjjjjjjjjjjjj"
};
