/* XPM */
static char *close_pressed[] = {
/* columns rows colors chars-per-pixel */
"20 20 75 1 ",
"  c #0E0E0F",
". c #26262A",
"X c #29292D",
"o c #2B2B2E",
"O c #2F2F34",
"+ c #333337",
"@ c #3C3B37",
"# c #333338",
"$ c #343439",
"% c #3C3B38",
"& c #3D3C38",
"* c #403F3A",
"= c #41403B",
"- c #41403C",
"; c #45433D",
": c #45433E",
"> c #454440",
", c #484743",
"< c #4B4941",
"1 c #494946",
"2 c #4D4B45",
"3 c #4C4B46",
"4 c #504E46",
"5 c #525149",
"6 c #51514F",
"7 c #55534C",
"8 c #58564F",
"9 c #525152",
"0 c #555456",
"q c #5F5E5E",
"w c #605F60",
"e c #626164",
"r c #636367",
"t c #636368",
"y c #67676B",
"u c #67676C",
"i c #68686D",
"p c #69696E",
"a c #6A6A73",
"s c #6C6B70",
"d c #777781",
"f c #7A7A83",
"g c #7F7F89",
"h c #807F8A",
"j c #808089",
"k c #80808B",
"l c #82828C",
"z c #84848F",
"x c #868692",
"c c #878792",
"v c #878793",
"b c #898994",
"n c #8B8B97",
"m c #8C8C98",
"M c #8E8E9B",
"N c #929197",
"B c #90909D",
"V c #92929F",
"C c #9393A0",
"Z c #9797A3",
"A c #9797A5",
"S c #9898A5",
"D c #9A9AA8",
"F c #9B9BA9",
"G c #A0A0AD",
"H c #A3A3AE",
"J c #A4A3AE",
"K c #A5A5B2",
"L c #AAAAB6",
"P c #ADADB8",
"I c #AFAFBA",
"U c #AFAFBB",
"Y c #B0B0BB",
"T c #B4B4BF",
"R c #B5B5BF",
/* pixels */
"88888888888888888888",
"77721*%%@%%%%@->2777",
"55>1afgghlglglfs1:55",
"4>9kllglhhglllllk9:4",
"<*hzzzzzzzzzzzzzcg%<",
":0cvcccccccvcccccc0:",
"=rccbbbbvvbbbvbbbbr-",
"*rnnbmaovmmvoammMcr=",
"&uMMMMb#.bb.#MMMMMu&",
"%uBMBBBM#..$MBBMBMy@",
"@yCMBZBCm  bCMCCBCi@",
"@iZCZZZMo##.BZZAZZu@",
"@iSSZSBo+AAOoCAAFFi@",
"@aFSFFdOZFFSOdFFFFi&",
"&iGGGGGGFGGGGGFHHFi@",
"&qKKKKKKKKKKKKKKKKq@",
"@-JLLLLLLLLLLLLLLJ-@",
"@-wPPYPYYPYPUYPYPq-@",
"@@-6NPRRTTTRRRYN9-@@",
"@@&%=&%%@@%&%%%-&%@@"
};
