/* XPM */
static char *close_unfocus[] = {
/* columns rows colors chars-per-pixel */
"20 20 56 1 ",
"  c #090909",
". c #1B1A18",
"X c #1C1C1A",
"o c #1F1E1C",
"O c #20201D",
"+ c #20201E",
"@ c #232220",
"# c #242421",
"$ c #3C3B37",
"% c #3D3D38",
"& c #3E3C39",
"* c #3F3E39",
"= c #3E3D3A",
"- c #403F3A",
"; c #43413D",
": c #42423D",
"> c #44433E",
", c #46463F",
"< c #464440",
"1 c #484743",
"2 c #4C4942",
"3 c #4B4A45",
"4 c #4C4A45",
"5 c #4C4B47",
"6 c #4C4C47",
"7 c #4F4E48",
"8 c #504E46",
"9 c #504F4A",
"0 c #515048",
"q c #525149",
"w c #50504B",
"e c #51504B",
"r c #52514B",
"t c #55534C",
"y c #58564F",
"u c #565550",
"i c #5F5F57",
"p c #605E57",
"a c #606058",
"s c #60605A",
"d c #62625C",
"f c #63625C",
"g c #63635C",
"h c #64635D",
"j c #64645C",
"k c #65645C",
"l c #65645E",
"z c #65655E",
"x c #67665F",
"c c #68675F",
"v c #68685F",
"b c #6A6961",
"n c #6B6B62",
"m c #6C6B62",
"M c #6C6C63",
"N c #6E6E64",
/* pixels */
"yyyyyyyyyyuyyyyyyyyy",
"ttt4--&&$$$&$$*>60tt",
"00>,smNMmNNNNmni<<00",
"8<4mMMMMmMMMmmmmM2<5",
"2*ncMnMMnnnnMMmnnc=2",
",6cnMccmcncnncnccn5<",
"-0nccMcccncccccnncw:",
"-0cccc9olccco7xcxgr=",
"-9cczvv+Xlf.@xxxzvr*",
"&9llzzzz@..#xxxlzzr*",
"&9zcvzzzf  sxfxfxgw$",
"$9lllzgd.@@Xfxfxfvw$",
"$9dcgzg.+gf+.fggggr$",
"$9ldgg6ofgfsX6fzggw$",
"$9dzggggggffxfgfgg7$",
"$1ddfffffffffgfffg<$",
"$-slfffsddfffffffa%*",
"$&<sfsfssdssadsss<$$",
"$$&-usssssssaasu:$%$",
"$$$$*$*$$$%$*$*$$$$$"
};
