/* XPM */
static char *close_focus[] = {
/* columns rows colors chars-per-pixel */
"20 20 77 1 ",
"  c #0F0F10",
". c #28282B",
"X c #28282C",
"o c #29292D",
"O c #2C2C2F",
"+ c #2E2E32",
"@ c #303034",
"# c #323237",
"$ c #3C3B37",
"% c #35353A",
"& c #37373C",
"* c #3D3B38",
"= c #3C3C38",
"- c #3E3D39",
"; c #3F3E3B",
": c #403F3A",
"> c #403F3C",
", c #42413D",
"< c #45433D",
"1 c #474642",
"2 c #484642",
"3 c #484643",
"4 c #4C4942",
"5 c #494846",
"6 c #494847",
"7 c #4D4B45",
"8 c #504E46",
"9 c #515048",
"0 c #52524F",
"q c #55534C",
"w c #58564F",
"e c #525152",
"r c #555455",
"t c gray37",
"y c #605F61",
"u c #636266",
"i c #656569",
"p c #67676C",
"a c #69696E",
"s c #6A6A6F",
"d c #6D6C70",
"f c #6D6D77",
"g c #6F6F76",
"h c #706F76",
"j c #787883",
"k c #81818C",
"l c #84848E",
"z c #85848E",
"x c #858590",
"c c #868691",
"v c #878792",
"b c #898994",
"n c #8B8B97",
"m c #8C8C99",
"M c #8E8E9A",
"N c #8E8E9B",
"B c #8F8F9C",
"V c #908F96",
"C c #909096",
"Z c #91919E",
"A c #9393A0",
"S c #9494A1",
"D c #9595A2",
"F c #9595A3",
"G c #9797A5",
"H c #9999A7",
"J c #9D9DAB",
"K c #A1A1AE",
"L c #A2A2AF",
"P c #A4A3AE",
"I c #A6A6B2",
"U c #AAAAB4",
"Y c #AAAAB6",
"T c #ACACB8",
"R c #AEAEBA",
"E c #AFAFBA",
"W c #B3B3BE",
/* pixels */
"wwwwwwwwwwwwwwwwwwww",
"qqq72,-=$=--$$,18w8w",
"9910MUWWWWWWWWUVe299",
"82yTEEETTTEEEETTTt18",
"4,PUUUUUYYUUYYYYUI>4",
",uIIIIIIIIIIIIIIIIt<",
",dKKKKKKLLLLLLPLLLd>",
"-dJJJJj@HJJH@jJJJJd-",
"-sHHHGG&oFSo%HHHHHs-",
"-aGHGGGG%oo%SHHFGGa-",
"=pSSSFASM  BSSSSAFp=",
"=pAAASABo@@oZSZSAAp=",
"$iZZZZmX#MM+.MZZAZp=",
"$iZMVMfOmMMnOfBMVMu=",
"$uMVMnMnMMMMnMMMmnu$",
"=rnmnnnnnmnnnnnnmVr$",
"=*lnvMbbMxmMxnnbbk--",
"=-rxxxxxxxxxvxxnxe-$",
"==*6fkxxzxzxzxkh5--$",
"==**,*$-$$-$$$---$$$"
};
