/* XPM */
static char *close_focus[] = {
/* columns rows colors chars-per-pixel */
"20 20 88 1 ",
"  c #090F09",
". c #192A18",
"X c #1A2B19",
"o c #1B2D19",
"O c #1C2E1C",
"+ c #1E311D",
"@ c #1F331D",
"# c #20351F",
"$ c #223921",
"% c #3C3A37",
"& c #3C3B37",
"* c #3C3C37",
"= c #3D3B38",
"- c #3D3F38",
"; c #3E3F39",
": c #403E39",
"> c #3D4038",
", c #3F4039",
"< c #3E4239",
"1 c #40423B",
"2 c #43413D",
"3 c #41443C",
"4 c #47453F",
"5 c #48473F",
"6 c #424A3D",
"7 c #434E3E",
"8 c #474740",
"9 c #484740",
"0 c #4A4841",
"q c #4D4B43",
"w c #4C4C45",
"e c #504E46",
"r c #485243",
"t c #485D43",
"y c #525149",
"u c #55534C",
"i c #58564F",
"p c #496044",
"a c #4A6245",
"s c #4C6949",
"d c #4D6B48",
"f c #4E6B4A",
"g c #477445",
"h c #487444",
"j c #4C7F49",
"k c #50734D",
"l c #547C50",
"z c #557F51",
"x c #4C8049",
"c c #558051",
"v c #568353",
"b c #568454",
"n c #5A8E57",
"m c #5B9058",
"M c #5C9358",
"N c #5C9359",
"B c #5B9458",
"V c #5B9658",
"C c #5D9659",
"Z c #5C9759",
"A c #5C9858",
"S c #5D985A",
"D c #5D995A",
"F c #5E9B5B",
"G c #5F9D5B",
"H c #5F9F5B",
"J c #62855E",
"K c #63965F",
"L c #619E5C",
"P c #609F5C",
"I c #61A25D",
"U c #61A35D",
"Y c #62A55E",
"T c #658E62",
"R c #659961",
"E c #6A9F67",
"W c #65A761",
"Q c #65A861",
"! c #6AAA66",
"~ c #6CA269",
"^ c #6DAC69",
"/ c #6EAD6A",
"( c #72AF6E",
") c #73B06F",
"_ c #74A770",
"` c #77B273",
"' c #78B274",
"] c #7BB277",
/* pixels */
"iiiiiiiiiiiiiiiiiiii",
"uuuuuuw03;:30wuuyiuu",
"yyyyw1rJ_''_Jr8wyyyy",
"eee81T'``'''''T,0eee",
"qq43~)`)(())(((E20wq",
"09,R//////////^/K;50",
"42f!!!!Q!!!!!!!!!f29",
"2;LQQQj@IYYI@jWYYH;:",
":7YYYYI$oIHo$UUUIY6;",
"*tIIIIYI$.o$IIUUIIa;",
"&fIIHIYLV  AIFHHIHs&",
"&pHFLDDD.@#oSHFHFDt&",
"&7SFDDSo+SC+XSSSDD7&",
"&*NDSNhoCSCCOgSSVm;=",
"**aSSSCCCCCCSSSNVt*&",
"***zMMMMMCmmmNNNv;&&",
"*&&1vmnSSnmnmmMv,;%&",
"&&&&;knnnnnnnnk,&&%%",
"&&&&&*6fcvvlf,,*&&&&",
"&&&&*&&*1**1*&>&*&&;"
};
