/* XPM */
static char *close_pressed[] = {
/* columns rows colors chars-per-pixel */
"20 20 90 1 ",
"  c #090F09",
". c #192918",
"X c #192A19",
"o c #1B2E1A",
"O c #1D2E1C",
"+ c #1F331E",
"@ c #1F341E",
"# c #213720",
"$ c #223820",
"% c #3C3B37",
"& c #3C3C37",
"* c #3D3C38",
"= c #3E3F38",
"- c #403D39",
"; c #3D4038",
": c #3F413A",
"> c #3F413B",
", c #41423B",
"< c #41443B",
"1 c #44423D",
"2 c #47453F",
"3 c #48463F",
"4 c #434B3E",
"5 c #424C3E",
"6 c #434E3E",
"7 c #464740",
"8 c #484740",
"9 c #4D4B43",
"0 c #4D4B44",
"q c #4D4C45",
"w c #504E46",
"e c #485043",
"r c #485143",
"t c #485E44",
"y c #525149",
"u c #54524B",
"i c #55534C",
"p c #58564F",
"a c #4A6146",
"s c #4B6446",
"d c #4D6848",
"f c #4F694A",
"g c #4E6B4A",
"h c #477445",
"j c #50734D",
"k c #51744D",
"l c #4D804A",
"z c #558153",
"x c #568352",
"c c #578653",
"v c #588554",
"b c #588955",
"n c #5A8E57",
"m c #5B9057",
"M c #5B9158",
"N c #5C9358",
"B c #5C9459",
"V c #5D9659",
"C c #5C9858",
"Z c #5E985A",
"A c #5E9B5A",
"S c #5E9A5B",
"D c #5E9C5B",
"F c #62835E",
"G c #63855F",
"H c #63945F",
"J c #609D5C",
"K c #5FA05B",
"L c #60A25C",
"P c #61A25D",
"I c #62A55E",
"U c #62A65E",
"Y c #668E62",
"T c #679A63",
"R c #6B9D66",
"E c #65A761",
"W c #66A862",
"Q c #6AAB66",
"! c #6BAB67",
"~ c #6EA26A",
"^ c #6EAD6A",
"/ c #6FAD6B",
"( c #6FAE6B",
") c #72A06E",
"_ c #70AE6C",
"` c #73B06F",
"' c #78AB74",
"] c #79AD75",
"[ c #74B070",
"{ c #79B375",
/* pixels */
"ppppippppppppppppppp",
"iiiiiiw7:**:7qiiiiii",
"yyyyq,4gxbbzg4:0yyyy",
"www8:jnnNnnnnnj:3www",
"993<cNNnNNnNnNnv,1qq",
"88*xNVNVNNNNNNNNx%88",
"8,sVVVVVNNVVVVVVVs,3",
"1*mZZZhOBSZNOhVVZn*1",
"*5JDDDZ$XBBX#ZZDZZ5&",
"*sDKDKKD#XX#SDDDJZs&",
"*gDKKLKUC  VPKPPJLg&",
"%sUPPPKKo##oDPPPLLt&",
"%ePPPUPo$KP@oKPPPP5&",
"%%PWEEk@UEWK@lWUWZ:&",
"&:g!!!!!!!!!!!!!Qg*%",
"%&:T((((((^^^^((H:&%",
"%%&<~`[[```[[`_R<*%%",
"%%%%,Y{{{{{{{{Y:*%%%",
"%%%%%,eF)]])Ge:&%%%%",
"%%%%%&&&&,&:*&&&%%%%"
};
