/* XPM */
static char *close_pressed[] = {
/* columns rows colors chars-per-pixel */
"20 20 74 1 ",
"  c #090F09",
". c #192918",
"X c #1B2E1A",
"o c #1C2E1C",
"O c #1F331D",
"+ c #1F341E",
"@ c #213720",
"# c #223820",
"$ c #3C3B37",
"% c #3C3C37",
"& c #3E3F38",
"* c #403F3A",
"= c #3E4039",
"- c #41403B",
"; c #45433D",
": c #43443E",
"> c #45453E",
", c #424A3D",
"< c #4B4941",
"1 c #4C4942",
"2 c #4C4B45",
"3 c #4D4B45",
"4 c #504E46",
"5 c #475142",
"6 c #465542",
"7 c #485043",
"8 c #475843",
"9 c #4C5F47",
"0 c #4E5F49",
"q c #515048",
"w c #55534C",
"e c #58564F",
"r c #4D6048",
"t c #4C6648",
"y c #4C6949",
"u c #4E6D4A",
"i c #477345",
"p c #4E704A",
"a c #4F714B",
"s c #52714D",
"d c #50724D",
"f c #4C8049",
"g c #578354",
"h c #568454",
"j c #598956",
"k c #5A8B56",
"l c #5A8B57",
"z c #5A8F57",
"x c #5B8F57",
"c c #5B9557",
"v c #5B9258",
"b c #5C9459",
"n c #5D975A",
"m c #5E995A",
"M c #5E9C5A",
"N c #5E9F5B",
"B c #609F5C",
"V c #5FA15B",
"C c #61A15D",
"Z c #61A45D",
"A c #63A75F",
"S c #6A9166",
"D c #64A760",
"F c #69AA65",
"G c #6EAD6A",
"H c #70A86B",
"J c #73AF6F",
"K c #73B06F",
"L c #77B073",
"P c #78B274",
"I c #78B374",
"U c #7BB076",
"Y c #7DB579",
"T c #7EB67A",
/* pixels */
"eeeeweeeeeeeeeeeweee",
"www3<&$$$$$$$$&:2www",
"qq:,dgkkkkjjjjgd,<qq",
"4>6kkkkkzkkkzjzzj6>4",
"1=kzzzzzzxzzzzzzvk&1",
";8vvzvvvbzbbvvzvbb6;",
"-tbbbbbbbbbbbbbbbbt*",
"*ybmbmiovbbboinbbbt&",
"*ymbmbc@.bc.@bmMmMu&",
"&yBBBBBm@..@mBBBMmy&",
"$yBBBBVVb  cBBBBVCu$",
"&uCCCCCmo##XMCCBCCu$",
"$uZZZZCX#ZV+XVCZCZd$",
"$pAAZDf+CDDCOfDDDDd$",
"%sFFFFFFFFFFFFFFFFs$",
"%rGGGGGGGGGGGGGGGG9$",
"$=HJJKKKJJKKKKKKKH&$",
"$&0LLPPPPPPIIIPPPr%$",
"$$:7SUYYYYYYYYUS7:$$",
"$$$$%%$$$$&%&$$=%%$$"
};
