/* XPM */
static char *close_focus[] = {
/* columns rows colors chars-per-pixel */
"20 20 77 1 ",
"  c #090F09",
". c #192B18",
"X c #1B2D19",
"o c #1D2F1C",
"O c #1F331E",
"+ c #21361F",
"@ c #223620",
"# c #223A21",
"$ c #3C3B37",
"% c #3C3C37",
"& c #3E3D39",
"* c #3E3F39",
"= c #403F3A",
"- c #3D4038",
"; c #3F413A",
": c #41403B",
"> c #44473E",
", c #45463F",
"< c #4B4941",
"1 c #4C4942",
"2 c #4C4B45",
"3 c #4D4B45",
"4 c #504E46",
"5 c #455540",
"6 c #465742",
"7 c #485143",
"8 c #485243",
"9 c #4F5F49",
"0 c #515048",
"q c #525149",
"w c #55534C",
"e c #58564F",
"r c #4C6048",
"t c #4F604A",
"y c #4D6848",
"u c #4D6B49",
"i c #4D6C49",
"p c #4E6E4A",
"a c #487746",
"s c #4E704A",
"d c #51724D",
"f c #53704E",
"g c #53714E",
"h c #52764D",
"j c #52764E",
"k c #4E804B",
"l c #5A8C55",
"z c #5A8F56",
"x c #5B8E57",
"c c #5B9258",
"v c #5B9758",
"b c #5C9459",
"n c #5C9858",
"m c #5D9959",
"M c #5E985A",
"N c #5E9B5B",
"B c #5F9D5B",
"V c #609F5C",
"C c #5FA05B",
"Z c #61A25D",
"A c #63A35F",
"S c #62A65E",
"D c #699165",
"F c #6A9165",
"G c #66A862",
"H c #66A962",
"J c #6AAB66",
"K c #6BAB67",
"L c #6FAD6B",
"P c #70A96B",
"I c #73B06F",
"U c #77AC73",
"Y c #77AB74",
"T c #76B072",
"R c #77B273",
"E c #78B274",
"W c #7CB578",
/* pixels */
"eeeeeeeeeeeeeeeeeeee",
"www3>-%%%%%%%$-,20ww",
"00,8DUWWWWWWWWYD7<00",
"4,tTETETRREEEEEET9<3",
"1:PIIIIIIIITTIIILP*<",
",tLLLLLLLLLLLLLLLLt<",
":dJJJJJJJJJJKKJJLJf*",
"*dGGGGh+AGGA+kGGGGf*",
"%sSSSSS#XBCX#SSSSSs*",
"%sZSASAV#X.#CSSCSSp*",
"%pACBZAVm  mCSAAACp$",
"%pCBBZVvX@OXmCBBCBp$",
"$uVBMVbX@vv@.mBBNBu$",
"$uBmVvaovVvvoaBmNNu$",
"$ymvMMMMmmMMMMmMNNy$",
"$8vVMbMbvVbMbMbMbv6$",
"$=xbbbbbbbbbbbbbbl-%",
"$*6vbbbxvxbxbbbbz6%$",
"$$*:hlxxxbxxlxlh-*$$",
"$$$$*$$$$$$$$$$$-*%%"
};
