/* XPM */
static char *maximize_pressed[] = {
/* columns rows colors chars-per-pixel */
"20 20 79 1 ",
"  c #3C3B37",
". c #3D3C38",
"X c #3D3D39",
"o c #3F3E39",
"O c #3F3F3A",
"+ c #403E3A",
"@ c #403F3B",
"# c #423F3B",
"$ c #41403B",
"% c #42413D",
"& c #44423C",
"* c #44433D",
"= c #45443E",
"- c #45443F",
"; c #464541",
": c #474641",
"> c #494740",
", c #484742",
"< c #4A4841",
"1 c #4D4B43",
"2 c #4B4A46",
"3 c #4D4C45",
"4 c #4E4D48",
"5 c #504E46",
"6 c #525149",
"7 c #51514C",
"8 c #53524D",
"9 c #55534C",
"0 c #58564F",
"q c #565651",
"w c #585752",
"e c #5A5A54",
"r c #5B5B55",
"t c #5C5B56",
"y c #5D5D56",
"u c #5C5C57",
"i c #5F5E58",
"p c #5F5F59",
"a c #606059",
"s c #62625B",
"d c #62615C",
"f c #63625C",
"g c #63635C",
"h c #63635D",
"j c #63635E",
"k c #65645E",
"l c #676761",
"z c #696963",
"x c #6A6963",
"c c #6A6A63",
"v c #6C6C65",
"b c #6E6D67",
"n c #6E6E67",
"m c #6E6D68",
"M c #70706A",
"N c #74736C",
"B c #77756F",
"V c #767671",
"C c #787770",
"Z c #787771",
"A c #787871",
"S c #797973",
"D c #7B7A73",
"F c #7B7B74",
"G c #7C7B74",
"H c #7D7C76",
"J c #807F78",
"K c #82827B",
"L c #83827B",
"P c #83837C",
"I c #84837C",
"U c #84837D",
"Y c #86867F",
"T c #878680",
"R c #878780",
"E c #878781",
"W c #8A8A84",
"Q c #8B8A84",
"! c #8B8B85",
/* pixels */
"0000qw0000qq00009e00",
"99999999999999999999",
"66663<<==<>>;>>36666",
"551=qMZAASSZAZMq=355",
"1<;H!!!!QQE!!!!!H><3",
">%HRRRRYEEERKEEULA&<",
"&8UUUUKULUUPPPUPPP6&",
"#jJJKHAnbbnvnCJHPHa$",
"#jGSGGt&22<2&tADSSj%",
".jSZZZteZZZZttCZZNa$",
".aBBZBtqBBBBewCNZZaO",
"#aNNNNwqNNMNqtNMNNa.",
".aMMMMwqMMMmqqMMMMr.",
".rnMmm99jddl39mMmmu.",
" ennmmt>>>>>>wmccvr ",
" 6cczzzzzzcccccczc6 ",
" %cllclllllllllllk$.",
"..3lkkkkkkkkkkkjk4. ",
".  ;ujkjjjajjaki;.. ",
"    .#.#$%.%O%O.. . "
};
