/* XPM */
static char *maximize_unfocus[] = {
/* columns rows colors chars-per-pixel */
"20 20 55 1 ",
"  c #3C3B37",
". c #3D3B38",
"X c #3D3D38",
"o c #3E3C38",
"O c #3E3D3A",
"+ c #413F3B",
"@ c #43433D",
"# c #44433D",
"$ c #45433D",
"% c #46433E",
"& c #454440",
"* c #474640",
"= c #484741",
"- c #494842",
"; c #4B4942",
": c #4D4B43",
"> c #4B4A46",
", c #4E4B44",
"< c #4C4B47",
"1 c #4E4E46",
"2 c #504E46",
"3 c #504F4A",
"4 c #525149",
"5 c #50504B",
"6 c #51504B",
"7 c #55534C",
"8 c #55544D",
"9 c #54544E",
"0 c #55544E",
"q c #58564F",
"w c #565651",
"e c #595851",
"r c #585853",
"t c #595853",
"y c #5A5954",
"u c #5C5C54",
"i c #5E5E56",
"p c #5F5E57",
"a c #605F58",
"s c #616159",
"d c #60605A",
"f c #61615B",
"g c #62625C",
"h c #63635C",
"j c #64635D",
"k c #65645D",
"l c #65655E",
"z c #67665F",
"x c #68675F",
"c c #696860",
"v c #6A6961",
"b c #6A6A61",
"n c #6B6B62",
"m c #6C6B62",
"M c #6D6D63",
/* pixels */
"qqqq88e8qqqqqqqqrwqq",
"77778888888888887777",
"44441;;%%%%%%;%24444",
"22,@;euappppauq;$,21",
":;@smmmmMMMvMMMMa&=,",
"=@pmmmmvMvMMMbcMva@=",
"$=vvvvvvbbbbcMMcvv$$",
"+8vxvvhpppupisccxv7@",
"+rxxxx6@@@=*@5lxxxw+",
".rlxlx66cvhb54xxxxr.",
".rlxll66hlll55hxllrX",
".7llll55hlll55xhllwX",
"+wjxjj66ljlj53hlllr.",
".rgjjj6,yyyy<3jlgjw.",
".7xdlj8$&&&&*7ggjg9.",
"X<ggjjalajggjgslgg< ",
"XXsgggggggggggggga. ",
"X.*ggdggaggaggggg*X ",
". .@rgdsggggggay&X  ",
".   .OOX++XO.OXO    "
};
