/* XPM */
static char *minimize_focus[] = {
/* columns rows colors chars-per-pixel */
"20 20 64 1 ",
"  c #3C3B37",
". c #3D3D38",
"X c #3D3D39",
"o c #3F3E3A",
"O c #413F3A",
"+ c #41403B",
"@ c #43423E",
"# c #44433E",
"$ c #46433E",
"% c #44443F",
"& c #464540",
"* c #494743",
"= c #4B4942",
"- c #4D4B43",
"; c #4A4844",
": c #4E4B44",
"> c #4C4B47",
", c #4E4E46",
"< c #4F4F4A",
"1 c #504E46",
"2 c #504F4B",
"3 c #525149",
"4 c #55534C",
"5 c #58564F",
"6 c #5B5955",
"7 c #5A5A54",
"8 c #5E5E58",
"9 c #5F5E58",
"0 c #605F59",
"q c #62605C",
"w c #62625D",
"e c #64645E",
"r c #66645E",
"t c #66665F",
"y c #676760",
"u c #676761",
"i c #686862",
"p c #6B6A64",
"a c #6B6A65",
"s c #6D6C66",
"d c #6F6D67",
"f c #6F6D68",
"g c #6F6F68",
"h c #70706B",
"j c #72716A",
"k c #72726C",
"l c #73736C",
"z c #73736D",
"x c #74736C",
"c c #76756E",
"v c #76756F",
"b c #767671",
"n c #787871",
"m c #7B7A73",
"M c #7B7A74",
"N c #7B7B74",
"B c #7F7E77",
"V c #7F7E78",
"C c #83827B",
"Z c #83827C",
"A c #86867F",
"S c #868680",
"D c #8A8A83",
"F c #8A8A84",
/* pixels */
"55555555555555555555",
"44444444444444444444",
"3333,*&&&&&%&%-13333",
"11:&2akkkzzzxha3#,1,",
"-=&bFFFFDDDDFDDDk%=-",
"=#kSSSSSSAAAAAAAAj%=",
"#:ZZZZZZZCCCCCCCCC-#",
"OqVVVVVVVBBBBBBBBBq+",
"OrNmNNmmNmmmmmmmnNyO",
"OrnnnnnmnmnmnnnnNNeO",
"Oqvvznsiyyyyydzvllqo",
"o9xxxz9-*;;;-9czzz0 ",
"o9jjjjjjjjjjxhjjjj0o",
"o9ffgggggggdddddgf9o",
"o7ssssssssssssssss7o",
" <aappppppppppppaa> ",
" oyyiyiipyyideyayyo ",
" o=eyyyyyeyeyeyey=  ",
"   #7wqweqweeqq7@o  ",
"    oooooo+oOO+o    "
};
