/* XPM */
static char *minimize_pressed[] = {
/* columns rows colors chars-per-pixel */
"20 20 70 1 ",
"  c #3C3B37",
". c #3D3C38",
"X c #3E3D3A",
"o c #3F3F3A",
"O c #403F3B",
"+ c #423F3B",
"@ c #41403B",
"# c #42413D",
"$ c #44423C",
"% c #44433D",
"& c #45443E",
"* c #464541",
"= c #474641",
"- c #494740",
"; c #4A4841",
": c #4D4B43",
"> c #494844",
", c #4A4844",
"< c #4D4C45",
"1 c #4E4D48",
"2 c #504E46",
"3 c #525149",
"4 c #51514C",
"5 c #53524D",
"6 c #55534C",
"7 c #58564F",
"8 c #565550",
"9 c #5A5954",
"0 c #5C5B56",
"q c #5F5E58",
"w c #61605A",
"e c #62615B",
"r c #63635E",
"t c #64645D",
"y c #65655F",
"u c #676760",
"i c #676761",
"p c #686761",
"a c #686861",
"s c #6A6A63",
"d c #6D6C66",
"f c #6F6D67",
"g c #6F6E67",
"h c #6F6E68",
"j c #70706A",
"k c #71716A",
"l c #73726C",
"z c #76756E",
"x c #767671",
"c c #787770",
"v c #797973",
"b c #7B7A73",
"n c #7B7B74",
"m c #7C7B74",
"M c #7D7C76",
"N c #7E7E77",
"B c #7F7F78",
"V c #807F78",
"C c #82827B",
"Z c #83827B",
"A c #83837C",
"S c #84837C",
"D c #84837D",
"F c #86867F",
"G c #878780",
"H c #878781",
"J c #8A8A84",
"K c #8B8A84",
"L c #8B8B84",
"P c #8B8B85",
/* pixels */
"77778777777777778777",
"66666666666866666866",
"3333<;;&&****-&23333",
"22:&8kxMnnnzxxk8&<2<",
":;*MPPPPLLLLLPPJM*;:",
"-#MGGGGDGFDDGGGAAn$;",
"$5DDDDCDDSAAAACDAA3#",
"+rVVCMCMVVAMMMAMVmy@",
"+tmmmnnnmnnnnmmmnnr+",
".qnmnznnzncxzzczznq+",
"@qzzlzfuuppppfzzxzq ",
"oqzlllq>-,,,:qlllkqO",
"oqkkjkkkkkjjjkjjfk0 ",
".0ffffffffjjffffff0O",
" 0fsddddfddsfsfssd0 ",
" 5sssssssspssssssi4 ",
" #usuuuuiiiiyiiyuuXo",
" o<tuuuuiiyryyyru;  ",
"  o*0uetiqeurre0*o  ",
"    X.ooXXXXo+ooo   "
};
