/* XPM */
static char * bullet_xpm[] = {
"16 16 20 1",
" 	c None",
".	c #616161",
"+	c #606060",
"@	c #AEAEAE",
"#	c #5C5C5C",
"$	c #5F5F5F",
"%	c #7B7B7B",
"&	c #B0B0B0",
"*	c #5B5B5B",
"=	c #878787",
"-	c #838383",
";	c #B8B8B8",
">	c #5D5D5D",
",	c #939393",
"'	c #8F8F8F",
")	c #B5B5B5",
"!	c #A0A0A0",
"~	c #ABABAB",
"{	c #5A5A5A",
"]	c #969696",
"                ",
"                ",
"                ",
"                ",
"     ..         ",
"     +@#        ",
"     $%&*       ",
"     $=-;>      ",
"     >,')>      ",
"     >!~{       ",
"     +]#        ",
"     *.         ",
"                ",
"                ",
"                ",
"                "};
