/* XPM */
static char * close_xpm[] = {
"24 24 41 1",
" 	c None",
".	c #F0F0EF",
"+	c #EFEFEF",
"@	c #EFEFEE",
"#	c #EEEEEE",
"$	c #5A5E60",
"%	c #555A5B",
"&	c #DDDDDE",
"*	c #DDDEDE",
"=	c #54595A",
"-	c #5B6061",
";	c #EEEEED",
">	c #575C5D",
",	c #2E3436",
"'	c #4F5456",
")	c #4E5355",
"!	c #585C5E",
"~	c #EDEDED",
"{	c #E7E7E8",
"]	c #505557",
"^	c #515658",
"/	c #E8E8E8",
"(	c #525758",
"_	c #E5E6E6",
":	c #EDEDEC",
"<	c #DEDEDD",
"[	c #DCDCDB",
"}	c #DDDDDD",
"|	c #ECECEC",
"1	c #535859",
"2	c #ECECEB",
"3	c #5D6263",
"4	c #E6E7E7",
"5	c #5E6364",
"6	c #F7F7F7",
"7	c #F8F8F7",
"8	c #EBEBEB",
"9	c #EBEBEA",
"0	c #EAEAEA",
"a	c #EAEAE9",
"b	c #E9E9E8",
"........................",
"++++++++++++++++++++++++",
"++++++++++++++++++++++++",
"@@@@@@@@@@@@@@@@@@@@@@@@",
"@@@@@@@@@@@@@@@@@@@@@@@@",
"########################",
"########$%&##*=-########",
";;;;;;;;>,'&&),!;;;;;;;;",
"~~~~~~~~{],'',^{~~~~~~~~",
"~~~~~~~~#/(,,)_#~~~~~~~~",
":::::::::<(,,)[:::::::::",
"::::::::}),^^,)}::::::::",
"||||||||1,]{{^,=||||||||",
"222222223>4::{>522222222",
"2222222267:22:7622222222",
"888888888888888888888888",
"888888888888888888888888",
"999999999999999999999999",
"999999999999999999999999",
"000000000000000000000000",
"aaaaaaaaaaaaaaaaaaaaaaaa",
"aaaaaaaaaaaaaaaaaaaaaaaa",
"aaaaaaaaaaaaaaaaaaaaaaaa",
"bbbbbbbbbbbbbbbbbbbbbbbb"};
