/* XPM */
static char * max_xpm[] = {
"24 24 26 1",
" 	c None",
".	c #F0F0EF",
"+	c #EFEFEF",
"@	c #EFEFEE",
"#	c #EEEEEE",
"$	c #5A5E60",
"%	c #2E3436",
"&	c #5A5F61",
"*	c #EEEEED",
"=	c #EDEDED",
"-	c #ECEDED",
";	c #FBFBFB",
">	c #EBECEC",
",	c #EDEDEC",
"'	c #DEDFDE",
")	c #ECECEC",
"!	c #ECECEB",
"~	c #5D6264",
"{	c #5E6364",
"]	c #F7F7F7",
"^	c #FBFBFA",
"/	c #EBEBEB",
"(	c #EBEBEA",
"_	c #EAEAEA",
":	c #EAEAE9",
"<	c #E9E9E8",
"........................",
"++++++++++++++++++++++++",
"++++++++++++++++++++++++",
"@@@@@@@@@@@@@@@@@@@@@@@@",
"@@@@@@@@@@@@@@@@@@@@@@@@",
"########################",
"########$%%%%%%&########",
"********%%%%%%%%********",
"========%%-;;>%%========",
"========%%#==#%%========",
",,,,,,,,%%,,,,%%,,,,,,,,",
",,,,,,,,%%',,'%%,,,,,,,,",
"))))))))%%%%%%%%))))))))",
"!!!!!!!!~%%%%%%{!!!!!!!!",
"!!!!!!!!]^^^^^^]!!!!!!!!",
"////////////////////////",
"////////////////////////",
"((((((((((((((((((((((((",
"((((((((((((((((((((((((",
"________________________",
"::::::::::::::::::::::::",
"::::::::::::::::::::::::",
"::::::::::::::::::::::::",
"<<<<<<<<<<<<<<<<<<<<<<<<"};
