/* XPM */
static char * max2_xpm[] = {
"24 24 15 1",
" 	c None",
".	c #F0F0EF",
"+	c #EFEFEF",
"@	c #EFEFEE",
"#	c #EEEEEE",
"$	c #EEEEED",
"%	c #EDEDED",
"&	c #EDEDEC",
"*	c #ECECEC",
"=	c #ECECEB",
"-	c #EBEBEB",
";	c #EBEBEA",
">	c #EAEAEA",
",	c #EAEAE9",
"'	c #E9E9E8",
"........................",
"++++++++++++++++++++++++",
"++++++++++++++++++++++++",
"@@@@@@@@@@@@@@@@@@@@@@@@",
"@@@@@@@@@@@@@@@@@@@@@@@@",
"########################",
"########################",
"$$$$$$$$$$$$$$$$$$$$$$$$",
"%%%%%%%%%%%%%%%%%%%%%%%%",
"%%%%%%%%%%%%%%%%%%%%%%%%",
"&&&&&&&&&&&&&&&&&&&&&&&&",
"&&&&&&&&&&&&&&&&&&&&&&&&",
"************************",
"========================",
"========================",
"------------------------",
"------------------------",
";;;;;;;;;;;;;;;;;;;;;;;;",
";;;;;;;;;;;;;;;;;;;;;;;;",
">>>>>>>>>>>>>>>>>>>>>>>>",
",,,,,,,,,,,,,,,,,,,,,,,,",
",,,,,,,,,,,,,,,,,,,,,,,,",
",,,,,,,,,,,,,,,,,,,,,,,,",
"''''''''''''''''''''''''"};
