/* XPM */
static char * min_xpm[] = {
"24 24 17 1",
" 	c None",
".	c #F0F0EF",
"+	c #EFEFEF",
"@	c #EFEFEE",
"#	c #EEEEEE",
"$	c #EEEEED",
"%	c #EDEDED",
"&	c #EDEDEC",
"*	c #ECECEC",
"=	c #2E3436",
"-	c #ECECEB",
";	c #FBFBFA",
">	c #EBEBEB",
",	c #EBEBEA",
"'	c #EAEAEA",
")	c #EAEAE9",
"!	c #E9E9E8",
"........................",
"++++++++++++++++++++++++",
"++++++++++++++++++++++++",
"@@@@@@@@@@@@@@@@@@@@@@@@",
"@@@@@@@@@@@@@@@@@@@@@@@@",
"########################",
"########################",
"$$$$$$$$$$$$$$$$$$$$$$$$",
"%%%%%%%%%%%%%%%%%%%%%%%%",
"%%%%%%%%%%%%%%%%%%%%%%%%",
"&&&&&&&&&&&&&&&&&&&&&&&&",
"&&&&&&&&&&&&&&&&&&&&&&&&",
"********========********",
"--------========--------",
"--------;;;;;;;;--------",
">>>>>>>>>>>>>>>>>>>>>>>>",
">>>>>>>>>>>>>>>>>>>>>>>>",
",,,,,,,,,,,,,,,,,,,,,,,,",
",,,,,,,,,,,,,,,,,,,,,,,,",
"''''''''''''''''''''''''",
"))))))))))))))))))))))))",
"))))))))))))))))))))))))",
"))))))))))))))))))))))))",
"!!!!!!!!!!!!!!!!!!!!!!!!"};
