/* XPM */
static char * tbarfcs_xpm[] = {
"9 22 86 1",
" 	c None",
".	c #F8F8F8",
"+	c #EEEEEE",
"@	c #EEEDED",
"#	c #EDEDED",
"$	c #EEEDEE",
"%	c #EDEDEE",
"&	c #EDEEED",
"*	c #EBEBEB",
"=	c #EBEBEC",
"-	c #EBEAEC",
";	c #EAE9EA",
">	c #EAEAE9",
",	c #E9EAEA",
"'	c #EAEAEA",
")	c #E9EAE9",
"!	c #E8E7E8",
"~	c #E7E8E8",
"{	c #E8E8E8",
"]	c #E8E8E7",
"^	c #E7E8E7",
"/	c #E9E8E8",
"(	c #E7E6E6",
"_	c #E6E6E6",
":	c #E4E5E4",
"<	c #E5E4E4",
"[	c #E4E5E5",
"}	c #E4E4E4",
"|	c #E5E5E4",
"1	c #E2E3E2",
"2	c #E2E2E3",
"3	c #E3E2E3",
"4	c #E3E2E2",
"5	c #E3E3E3",
"6	c #E2E3E3",
"7	c #E1E1E1",
"8	c #E0E0E0",
"9	c #E0E1E1",
"0	c #E1E1E0",
"a	c #E0E1E0",
"b	c #DFDFDF",
"c	c #E0E0DF",
"d	c #DFDFE0",
"e	c #E0DFDF",
"f	c #DDDEDD",
"g	c #DEDEDD",
"h	c #DEDEDE",
"i	c #DDDDDD",
"j	c #DEDDDD",
"k	c #DDDDDE",
"l	c #DEDDDE",
"m	c #DCDCDC",
"n	c #DCDBDC",
"o	c #DCDCDB",
"p	c #DBDCDC",
"q	c #DBDADA",
"r	c #DADBDA",
"s	c #D9DADA",
"t	c #DADADA",
"u	c #D9D8D8",
"v	c #D8D8D8",
"w	c #D8D8D9",
"x	c #D8D9D8",
"y	c #D7D6D7",
"z	c #D7D7D7",
"A	c #D6D7D6",
"B	c #D6D7D7",
"C	c #D5D5D5",
"D	c #D5D5D4",
"E	c #D5D6D5",
"F	c #D3D3D3",
"G	c #D3D4D3",
"H	c #D3D3D4",
"I	c #D1D1D1",
"J	c #D2D2D2",
"K	c #D1D1D2",
"L	c #D2D1D1",
"M	c #CFD0CF",
"N	c #D0CFD0",
"O	c #CFCFCF",
"P	c #D0D0CF",
"Q	c #CFD0D0",
"R	c #CFCFD0",
"S	c #D4D4D4",
"T	c #D4D4D3",
"U	c #626262",
".........",
"+++++++++",
"@#$@@#%&#",
"***==-***",
";>,'))'>'",
"!~{{]]]^/",
"(____(__(",
":<[}<|:[|",
"111234562",
"7897700a9",
"bbcddbedb",
"fghhijklh",
"mnooppmom",
"qrstttrtt",
"uvvvvwvxu",
"yzzzAABBz",
"CCCCCDCEC",
"FGFFFFFHF",
"IIJIKLKII",
"MNMMMOPQR",
"SSSHFFTSS",
"UUUUUUUUU"};
