/* XPM */
static char * tbarbg_xpm[] = {
"7 22 21 1",
" 	c None",
".	c #535959",
"+	c #424949",
"@	c #414848",
"#	c #3F4545",
"$	c #3E4444",
"%	c #3C4343",
"&	c #3B4141",
"*	c #3A4040",
"=	c #383E3E",
"-	c #373C3C",
";	c #363C3C",
">	c #353B3B",
",	c #343A3A",
"'	c #333838",
")	c #323737",
"!	c #303636",
"~	c #303535",
"{	c #2F3434",
"]	c #2E3333",
"^	c #1F2222",
".......",
"+++++++",
"@@@@@@@",
"#######",
"$$$$$$$",
"%%%%%%%",
"&&&&&&&",
"*******",
"=======",
"=======",
"-------",
";;;;;;;",
">>>>>>>",
",,,,,,,",
"'''''''",
")))))))",
")))))))",
"!!!!!!!",
"~~~~~~~",
"{{{{{{{",
"]]]]]]]",
"^^^^^^^"};
