/* XPM */
static char * tbar_xpm[] = {
"1 24 24 1",
" 	c None",
".	c #060709",
"+	c #5A85C8",
"@	c #5883C7",
"#	c #5782C6",
"$	c #5581C5",
"%	c #547FC4",
"&	c #537EC3",
"*	c #527CC2",
"=	c #517CC2",
"-	c #4F7AC1",
";	c #4E79C0",
">	c #4C77BF",
",	c #4C76BE",
"'	c #4B75BD",
")	c #4973BC",
"!	c #4872BB",
"~	c #4670BB",
"{	c #466FBA",
"]	c #456EB9",
"^	c #436DB8",
"/	c #426BB7",
"(	c #406AB6",
"_	c #3F68B5",
".",
"+",
"@",
"#",
"$",
"%",
"&",
"*",
"=",
"-",
";",
">",
",",
"'",
")",
"!",
"~",
"{",
"]",
"^",
"/",
"(",
"_",
"."};
