/* XPM */
static char * titlebar_xpm[] = {
"1 24 21 1",
" 	c None",
".	c #FDFDFD",
"+	c #F4F4F4",
"@	c #F2F2F2",
"#	c #F1F1F1",
"$	c #F0F0F0",
"%	c #F0F0EF",
"&	c #EFEFEF",
"*	c #EFEFEE",
"=	c #EEEEEE",
"-	c #EEEEED",
";	c #EDEDED",
">	c #EDEDEC",
",	c #ECECEC",
"'	c #ECECEB",
")	c #EBEBEB",
"!	c #EBEBEA",
"~	c #EAEAEA",
"{	c #EAEAE9",
"]	c #E9E9E8",
"^	c #E8E8E7",
".",
"+",
"@",
"#",
"#",
"$",
"%",
"&",
"*",
"=",
"-",
";",
">",
",",
"'",
")",
"!",
"~",
"{",
"]",
"]",
"^",
"^",
"^"};
