/* XPM */
static char *close_pressed[] = {
/* columns rows colors chars-per-pixel */
"20 20 99 2 ",
"   c #070D14",
".  c #122435",
"X  c #122437",
"o  c #13263A",
"O  c #14283C",
"+  c #14283D",
"@  c #3C3B37",
"#  c #3C3C37",
"$  c #3D3C39",
"%  c #3C3D3A",
"&  c #3D3E3D",
"*  c #403D39",
"=  c #3F403F",
"-  c #41423E",
";  c #44423D",
":  c #47453F",
">  c #172C42",
",  c #172D44",
"<  c #183049",
"1  c #19314A",
"2  c #3D4040",
"3  c #3D4244",
"4  c #3E474E",
"5  c #3E4850",
"6  c #3E4851",
"7  c #3F4A54",
"8  c #3F586E",
"9  c #3F5972",
"0  c #3F5B76",
"q  c #454644",
"w  c #484741",
"e  c #4A4841",
"r  c #4D4B43",
"t  c #4D4C45",
"y  c #504E46",
"u  c #525149",
"i  c #54524B",
"p  c #55534C",
"a  c #58564F",
"s  c #424C54",
"d  c #424C55",
"f  c #405971",
"g  c #435F7B",
"h  c #415F7D",
"j  c #41617F",
"k  c #3E6085",
"l  c #3F6791",
"z  c #3E6792",
"x  c #336598",
"c  c #346498",
"v  c #386EA6",
"b  c #3F72A7",
"n  c #3E72A9",
"m  c #3F79B5",
"M  c #4E7497",
"N  c #4F759B",
"B  c #4073A7",
"V  c #4173A7",
"C  c #4F7AA6",
"Z  c #4075AD",
"A  c #507DAA",
"S  c #437DBB",
"D  c #407CBC",
"F  c #417EBE",
"G  c #4C81B7",
"H  c #4E85BD",
"J  c #568BBF",
"K  c #4180C1",
"L  c #4180C3",
"P  c #4280C2",
"I  c #4382C5",
"U  c #4384C7",
"Y  c #4384C8",
"T  c #4384C9",
"R  c #4484C8",
"E  c #4486CC",
"W  c #4588CC",
"Q  c #4588CE",
"!  c #468ACF",
"~  c #4888C9",
"^  c #4989C9",
"/  c #5088C1",
"(  c #528CC7",
")  c #578DC4",
"_  c #5994CF",
"`  c #468AD0",
"'  c #478CD4",
"]  c #478DD4",
"[  c #488DD3",
"{  c #488FD7",
"}  c #4990D9",
"|  c #4A90D9",
" . c #4D92DA",
".. c #4D93DA",
"X. c #5A95D1",
"o. c #5195DB",
"O. c #5295DB",
"+. c #5597DB",
"@. c #599ADC",
/* pixels */
"a a a a a a a a a a a a a a a a a a a a ",
"p p p p p u t q = $ $ 3 q t a i i a p p ",
"u u u u t 3 4 k V m m n k 4 3 e u u u u ",
"y y y w & z F F S m m P m S l & e y y t ",
"r r w 3 Z F F F K m L G P m m m 3 : r r ",
"w w & V P P P P L L L L P P L I b $ : e ",
": - 0 I I I I I L U P P U L U I U 9 - : ",
"; $ S R R R c + L U U K O x U U U S $ - ",
"* 6 T E T E T 1 . L L . < T U Q T U 6 $ ",
"$ 9 Q E ` Q Q Q 1 . . 1 T Q Q Q Q Q 8 $ ",
"$ k ` ` ` ` ` ` T     I ! ! ! ! ` ` 0 @ ",
"# 8 { ' { ] ` ` O 1 < X U ] ] ] { ] 9 @ ",
"# s { { { ] ` X 1 Q ] , O ! { { ] { 6 @ ",
"# # ^ | ....v > ] ..{ ] , v } } ..~ $ @ ",
"$ $ j  .o. . . ................. .g $ @ ",
"$ $ * H o.o.o.o.o.o.o.o.o.o.o.o.G & # @ ",
"@ @ # 3 ( o.+.+.+.+.+.+.+.+.+./ 3 @ @ @ ",
"@ @ @ $ = A @.@.@.@.@.+.@.@.C & $ @ @ @ ",
"@ @ @ @ @ 3 s M J _ X.) N d 3 @ @ @ @ @ ",
"@ @ @ @ @ @ @ - = & & = & $ @ @ @ @ @ @ "
};
