/* XPM */
static char *close_focus[] = {
/* columns rows colors chars-per-pixel */
"20 20 105 2 ",
"   c #070D14",
".  c #122537",
"X  c #132538",
"o  c #132539",
"O  c #13263A",
"+  c #14283D",
"@  c #3C3A37",
"#  c #3C3B37",
"$  c #3D3B38",
"%  c #3C3C38",
"&  c #3D3D3A",
"*  c #3C3E3C",
"=  c #3D3E3D",
"-  c #3C3F3E",
";  c #3C3E3F",
":  c #3E3F3E",
">  c #403E39",
",  c #43413D",
"<  c #47453F",
"1  c #47463F",
"2  c #172C42",
"3  c #172E46",
"4  c #182E47",
"5  c #19314B",
"6  c #1A334D",
"7  c #3C4141",
"8  c #3F4344",
"9  c #3F4447",
"0  c #3D464F",
"q  c #3D484F",
"w  c #3E4952",
"e  c #3F566B",
"r  c #3E5872",
"t  c #3F5A75",
"y  c #404342",
"u  c #414443",
"i  c #474741",
"p  c #484740",
"a  c #464845",
"s  c #4A4841",
"d  c #4D4B43",
"f  c #4D4D45",
"g  c #504E46",
"h  c #525149",
"j  c #54524B",
"k  c #55534C",
"l  c #58564F",
"z  c #424E55",
"x  c #434D56",
"c  c #405A72",
"v  c #415F7D",
"b  c #43607B",
"n  c #3E6185",
"m  c #3E6792",
"M  c #336598",
"N  c #346498",
"B  c #3E6FA0",
"V  c #386EA5",
"C  c #3F71A5",
"Z  c #3F74AD",
"A  c #4F759B",
"S  c #50769C",
"D  c #4071A5",
"F  c #4F7AA6",
"G  c #507DAA",
"H  c #427DB9",
"J  c #407CBB",
"K  c #437EBC",
"L  c #407EBE",
"P  c #417EBF",
"I  c #4D83BA",
"U  c #4E85BD",
"Y  c #4180C1",
"T  c #4282C4",
"R  c #4382C4",
"E  c #4383C7",
"W  c #4384C7",
"Q  c #4383C8",
"!  c #4384C8",
"~  c #4484C8",
"^  c #4486CA",
"/  c #4588CD",
"(  c #4588CE",
")  c #4589CF",
"_  c #4888C9",
"`  c #4989C9",
"'  c #508AC5",
"]  c #528CC7",
"[  c #588EC7",
"{  c #5891C9",
"}  c #468AD1",
"|  c #478CD3",
" . c #478CD4",
".. c #478DD4",
"X. c #488FD7",
"o. c #4A91D9",
"O. c #4D92DA",
"+. c #4D93DA",
"@. c #4E93DA",
"#. c #5195DB",
"$. c #5295DB",
"%. c #5597DB",
"&. c #5B9ADA",
"*. c #5899DC",
"=. c #5999DC",
/* pixels */
"l l l l l l l l l l l l l l l l k l l l ",
"k k k k j j f a y & & y a f k j k k k k ",
"h h h h f y x S { &.&.[ A x y f h h h h ",
"g g g i : G =.=.=.=.=.=.*.=.F u s g g g ",
"d d s 8 ] %.%.%.%.%.%.%.*.%.%.' 9 < d d ",
"s p = U #.#.#.#.#.#.#.#.#.#.#.#.I = 1 s ",
"< , b +.+.+.+.+.#.+.+.+.+.+.+.+.#.v , 1 ",
", = ` o.o.o.V 2 | o.X. .2 V X.X.o.` * , ",
"& x X.X.X.o.} 6 o } } . 6  .X.X.| X.0 & ",
"$ t  . . . . .} 5 X . 5 } }  .} } X.r & ",
"$ v } } } } } } Q     Q ) ) } ) } ( b # ",
"@ r / / / / / ^ . 4 4 . ~ / / ) ( ( e # ",
"@ w ^ ) ) ! R X 3 ! ! + X R ^ ^ Q ) 0 # ",
"@ & K Y ! ! M + Y ! ! Y + M R ~ Q J * # ",
"$ & c ^ R W R R W R Y R R R R R R r = # ",
"@ @ = D Y Y Y R L R R Y Y Y P R C * # # ",
"@ # # 7 Z P P P L P P P P P P Z 7 # # # ",
"# # # # = m J J J L J J J J m ; # # # # ",
"# # # # # * 0 n C Z Z B t 0 * # # # # # ",
"# # # # # # # * 8 % * ; * # # # # * # # "
};
