/* XPM */
static char *button30[] = {
/* columns rows colors chars-per-pixel */
"29 30 61 1 ",
"  c #222D32",
". c #222E33",
"X c #232E33",
"o c #242E34",
"O c #242F34",
"+ c #242F35",
"@ c #253035",
"# c #273137",
"$ c #273237",
"% c #293338",
"& c #293339",
"* c #293439",
"= c #29353B",
"- c #2B363B",
"; c #2C363C",
": c #2C373D",
"> c #2D383D",
", c #2E393E",
"< c #2E393F",
"1 c #2F393F",
"2 c #2F3A3F",
"3 c #303B41",
"4 c #313B41",
"5 c #313C41",
"6 c #323C42",
"7 c #323D42",
"8 c #333D42",
"9 c #333D43",
"0 c #333E43",
"q c #333E44",
"w c #343E44",
"e c #343F44",
"r c #354045",
"t c #364046",
"y c #384248",
"u c #384348",
"i c #394449",
"p c #3A444A",
"a c #3A454A",
"s c #3C464C",
"d c #3C474C",
"f c #3D474D",
"g c #3D484D",
"h c #3D484E",
"j c #3E484E",
"k c #3E494F",
"l c #3F4A4F",
"z c #404B50",
"x c #414B51",
"c c #414C51",
"v c #424C51",
"b c #424D52",
"n c #434D52",
"m c #434E53",
"M c #444F54",
"N c #505A5F",
"B c #6B757A",
"V c #768185",
"C c #7E888D",
"Z c #C3CDD1",
"A c #CFD8DC",
/* pixels */
"=============================",
"OOOOOOOOOOOOOOOOOOOOOOOOOOOOO",
"                             ",
"         X$;>121>;$X         ",
"        @,tszbnbzst,@        ",
"       -ivMMMMMMMMMci-       ",
"     .5hMMMMMMMMMMMMMh3      ",
"     5lMMMMMMMMMMMMMMMk3     ",
"    >lMMMMMMMMMMMMMMMMMk:    ",
"   $aMMMMMMMMMMMMMMMMMMMp#   ",
"  X5vMMMMMMMMMMMMMMMMMMMv5X  ",
"  *uMMMMMMMMMMMMMMMMMMMMMy&  ",
"  ,gMMMMMMMMMMMMMMMMMMMMMg,  ",
"  5cMMMMMMMMMMMMMMMMMMMMMx4  ",
"  0mMMMMMMMMMMMMMMMMMMMMMm9  ",
"  emMMMMMMMMMMMMMMMMMMMMMme  ",
"  0mMMMMMMMMMMMMMMMMMMMMMmw  ",
"  7cMMMMMMMMMMMMMMMMMMMMMx6  ",
"  2jMMMMMMMMMMMMMMMMMMMMMg1  ",
"  *aMMMMMMMMMMMMMMMMMMMMMi%  ",
"  X9bMMMMMMMMMMMMMMMMMMMn8X  ",
"   $gMMMMMMMMMMMMMMMMMMMf$   ",
"   o1cMMMMMMMMMMMMMMMMMc<o   ",
"    @qcMMMMMMMMMMMMMMMc0@    ",
"     +qcMMMMMMMMMMMMMcq+     ",
"      +<dbMMMMMMMMMbd<+      ",
"       X$9igxmmmxgi8$X       ",
"         X&26wrw62%X         ",
"                             ",
"                             "
};
