/* XPM */
static char *close_inactive[] = {
/* columns rows colors chars-per-pixel */
"24 25 25 1 ",
"  c #222D32",
". c #273237",
"X c #283337",
"o c #283338",
"O c #293338",
"+ c #293339",
"@ c #293439",
"# c #2A3439",
"$ c #29353B",
"% c #2A363A",
"& c #2B363B",
"* c #566065",
"= c #586167",
"- c #5A6469",
"; c #5B646A",
": c #5B656A",
"> c #5C656A",
", c #5C656B",
"< c #5D666B",
"1 c #5D676B",
"2 c #5D676C",
"3 c #5D676D",
"4 c #5F686E",
"5 c #5F696E",
"6 c #677176",
/* pixels */
"$$$$$$$$$$$$$$$$$$$$$$$$",
"                        ",
"                        ",
"                        ",
"                        ",
"                        ",
"                        ",
"                        ",
"                        ",
"        6=X  .*6        ",
"        ,6:XX-61        ",
"        #36:;64%        ",
"         O<665&         ",
"         X:662@         ",
"        o>61161O        ",
"        -61+O16-        ",
"        6-+  O-6        ",
"                        ",
"                        ",
"                        ",
"                        ",
"                        ",
"                        ",
"                        ",
"                        "
};
