/* XPM */
static char *close_active[] = {
/* columns rows colors chars-per-pixel */
"24 25 28 1 ",
"  c #222D32",
". c #29353B",
"X c #2C373B",
"o c #2C373C",
"O c #2D373D",
"+ c #2E393E",
"@ c #2F393E",
"# c #2E3A3E",
"$ c #2F3A3F",
"% c #2F3B3F",
"& c #323D42",
"* c #343F43",
"= c #838D92",
"- c #859094",
"; c #8A9499",
": c #8B969A",
"> c #8C969A",
", c #8D969B",
"< c #8D979C",
"1 c #8E989C",
"2 c #8F999D",
"3 c #909A9D",
"4 c #909A9E",
"5 c #919BA0",
"6 c #949EA1",
"7 c #949EA3",
"8 c #A3ACB1",
"9 c #A4ADB2",
/* pixels */
"........................",
"                        ",
"                        ",
"                        ",
"                        ",
"                        ",
"                        ",
"                        ",
"                        ",
"        8-O  X=9        ",
"        <9,Oo:93        ",
"        $59,>96&        ",
"         @2997*         ",
"         O,994%         ",
"        +193393@        ",
"        ;93#@39:        ",
"        8:#  @:9        ",
"                        ",
"                        ",
"                        ",
"                        ",
"                        ",
"                        ",
"                        ",
"                        "
};
