/* XPM */
static char *close_pressed[] = {
/* columns rows colors chars-per-pixel */
"24 25 80 1 ",
"  c #1F2A2E",
". c #1F2D31",
"X c #1F2E32",
"o c #1F2E34",
"O c #202A2F",
"+ c #202B2F",
"@ c #212B30",
"# c #212C30",
"$ c #202C31",
"% c #212C31",
"& c #222C31",
"* c #222D32",
"= c #222D33",
"- c #202F35",
"; c #212F35",
": c #29353B",
"> c #155661",
", c #155662",
"< c #155863",
"1 c #145964",
"2 c #155965",
"3 c #175964",
"4 c #145A65",
"5 c #155A65",
"6 c #165A65",
"7 c #165B65",
"8 c #155C67",
"9 c #165C67",
"0 c #155C68",
"q c #165D68",
"w c #0E7786",
"e c #0E7887",
"r c #0E7888",
"t c #0F7988",
"y c #0E7A89",
"u c #0E7A8A",
"i c #0F7A8A",
"p c #0B8798",
"a c #0B8898",
"s c #0B889A",
"d c #0B899B",
"f c #0C899B",
"g c #05A5BA",
"h c #05A5BB",
"j c #04A6BB",
"k c #04A7BC",
"l c #04A8BD",
"z c #04A8BE",
"x c #04A9BE",
"c c #04A9BF",
"v c #02B4CA",
"b c #01B5CC",
"n c #01B6CD",
"m c #00BCD4",
"M c #13C1D7",
"N c #14C1D7",
"B c #15C2D8",
"V c #17C2D8",
"C c #18C2D8",
"Z c #19C3D8",
"A c #1AC3D8",
"S c #1BC3D9",
"D c #20C4D9",
"F c #22C5DA",
"G c #BFEEF4",
"H c #C4EFF5",
"J c #CDF2F7",
"K c #CFF2F7",
"L c #D1F3F7",
"P c #D2F3F7",
"I c #D3F3F8",
"U c #D4F4F8",
"Y c #D6F4F8",
"T c #D7F4F8",
"R c #D9F5F9",
"E c #DBF6F9",
"W c #DFF7FA",
"Q c #E1F7FA",
"! c #FEFFFF",
"~ c white",
/* pixels */
"::::::::::::::::::::::::",
"************************",
"**********&%%&**********",
"*******;qfhnnhf9;*******",
"******7xmmmmmmmml6******",
"*****ummmmmmmmmmmmi=****",
"***&ymmmmmmmmmmmmmmt&***",
"***6mmmmmmmmmmmmmmmm3***",
"**-lmmmmmmmmmmmmmmmmc-**",
"**0mmmmm!HBmmMG~mmmmm8**",
"*%dmmmmmI~PBNK~Tmmmmma%*",
"*%kmmmmmSE~PL~WDmmmmmh%*",
"*#bmmmmmmCY~~QFmmmmmmb#*",
"*#bmmmmmmBP~~RAmmmmmmv#*",
"*#jmmmmmVU~TT~TCmmmmmg#*",
"*%smmmmmJ~TZCT~Kmmmmmp%*",
"*%5mmmmm!KZmmCK~mmmmm2%*",
"**Xkmmmmmmmmmmmmmmmmzo**",
"**%<mmmmmmmmmmmmmmmm,%**",
"***@rmmmmmmmmmmmmmmw@***",
"***&$rmmmmmmmmmmmme$&***",
"****%+,kmmmmmmmmk>+%****",
"******@.4pgbbgp1.@******",
"*******%#+O  O+#%*******",
"**********&%%&**********"
};
