/* XPM */
static char *menu_active[] = {
/* columns rows colors chars-per-pixel */
"24 25 3 1 ",
"  c #222D32",
". c #29353B",
"X c #A4ADB2",
/* pixels */
"........................",
"                        ",
"                        ",
"                        ",
"                        ",
"                        ",
"                        ",
"                        ",
"                        ",
"        XXXXXXXX        ",
"        XXXXXXXX        ",
"                        ",
"        XXXXXXXX        ",
"        XXXXXXXX        ",
"                        ",
"        XXXXXXXX        ",
"        XXXXXXXX        ",
"                        ",
"                        ",
"                        ",
"                        ",
"                        ",
"                        ",
"                        ",
"                        "
};
