/* XPM */
static char *menu_inactive[] = {
/* columns rows colors chars-per-pixel */
"24 25 3 1 ",
"  c #222D32",
". c #29353B",
"X c #677176",
/* pixels */
"........................",
"                        ",
"                        ",
"                        ",
"                        ",
"                        ",
"                        ",
"                        ",
"                        ",
"        XXXXXXXX        ",
"        XXXXXXXX        ",
"                        ",
"        XXXXXXXX        ",
"        XXXXXXXX        ",
"                        ",
"        XXXXXXXX        ",
"        XXXXXXXX        ",
"                        ",
"                        ",
"                        ",
"                        ",
"                        ",
"                        ",
"                        ",
"                        "
};
