/* XPM */
static char * root_menu_hover_xpm[] = {
"30 30 9 1",
" 	c None",
".	c #222D32",
"+	c #636A6E",
"@	c #E7E8E9",
"#	c #E6E7E8",
"$	c #61696C",
"%	c #FFFFFF",
"&	c #E5E7E7",
"*	c #60686B",
"..............................",
"..............................",
"..............................",
"..............................",
"..............................",
"..............................",
"..............................",
".......+@#$..+@#$..+@#$.......",
".......#%%&..#%%&..#%%&.......",
".......#%%&..#%%&..#%%&.......",
".......$#&*..$#&*..$#&*.......",
"..............................",
"..............................",
".......+@#$..+@#$..+@#$.......",
".......#%%&..#%%&..#%%&.......",
".......#%%&..#%%&..#%%&.......",
".......$#&*..$#&*..$#&*.......",
"..............................",
"..............................",
".......+@#$..+@#$..+@#$.......",
".......#%%&..#%%&..#%%&.......",
".......#%%&..#%%&..#%%&.......",
".......$#&*..$#&*..$#&*.......",
"..............................",
"..............................",
"..............................",
"..............................",
"..............................",
"..............................",
".............................."};
