/* XPM */
static char *shade_toggled_inactive[] = {
/* columns rows colors chars-per-pixel */
"24 25 6 1 ",
"  c #222D32",
". c #29353B",
"X c #434D52",
"o c #444F54",
"O c #454F54",
"+ c #677176",
/* pixels */
"........................",
"                        ",
"                        ",
"                        ",
"                        ",
"                        ",
"                        ",
"                        ",
"                        ",
"                        ",
"                        ",
"        X++++++o        ",
"         X++++o         ",
"          X++o          ",
"           OO           ",
"                        ",
"                        ",
"                        ",
"                        ",
"                        ",
"                        ",
"                        ",
"                        ",
"                        ",
"                        "
};
