/* XPM */
static char *shade_inactive[] = {
/* columns rows colors chars-per-pixel */
"24 25 5 1 ",
"  c #222D32",
". c #29353B",
"X c #454F54",
"o c #475156",
"O c #677176",
/* pixels */
"........................",
"                        ",
"                        ",
"                        ",
"                        ",
"                        ",
"                        ",
"                        ",
"                        ",
"                        ",
"                        ",
"           Xo           ",
"          XOOo          ",
"         XOOOOo         ",
"        XOOOOOOo        ",
"                        ",
"                        ",
"                        ",
"                        ",
"                        ",
"                        ",
"                        ",
"                        ",
"                        ",
"                        "
};
