/* XPM */
static char *shade_pressed[] = {
/* columns rows colors chars-per-pixel */
"24 25 24 1 ",
"  c #222D32",
". c #222E33",
"X c #232E33",
"o c #29353B",
"O c #2D373D",
"+ c #2D383D",
"@ c #2E383D",
"# c #2E383E",
"$ c #2E393E",
"% c #343F44",
"& c #343F45",
"* c #354045",
"= c #384248",
"- c #384348",
"; c #394349",
": c #3F494F",
"> c #3F4A4F",
", c #404A4F",
"< c #424D52",
"1 c #434E53",
"2 c #444F54",
"3 c #8A9398",
"4 c #8E989C",
"5 c #CFD8DC",
/* pixels */
"oooooooooooooooooooooooo",
"                        ",
"                        ",
"       X$;:<<:;$X       ",
"      +,22222222>+      ",
"    .*222222222222&     ",
"    *22222222222222&    ",
"   +2222222222222222O   ",
"  X>2222222222222222,X  ",
"  $222222222222222222#  ",
"  ;222222222222222222-  ",
"  >222222223422222222:  ",
"  <222222235542222222<  ",
"  <2222223555542222221  ",
"  >222223555555422222:  ",
"  ;222222222222222222=  ",
"  $222222222222222222@  ",
"  X>2222222222222222,X  ",
"   +2222222222222222O   ",
"    &22222222222222%    ",
"     &222222222222&     ",
"      O>22222222>O      ",
"       X#-:<<:-@X       ",
"                        ",
"                        "
};
