/* XPM */
static char *stick_toggled_active[] = {
/* columns rows colors chars-per-pixel */
"24 25 13 1 ",
"  c #222D32",
". c #253035",
"X c #29353B",
"o c #2F3A3F",
"O c #303B40",
"+ c #313B41",
"@ c #677175",
"# c #677176",
"$ c #677277",
"% c #7D878C",
"& c #7F898D",
"* c #96A0A4",
"= c #97A1A5",
/* pixels */
"XXXXXXXXXXXXXXXXXXXXXXXX",
"                        ",
"                        ",
"                        ",
"                        ",
"                        ",
"                        ",
"                        ",
"                        ",
"                        ",
"         .$=*#.         ",
"         #%oO&#         ",
"         *O  +*         ",
"         *O  +*         ",
"         #&O+&@         ",
"         .#**#.         ",
"                        ",
"                        ",
"                        ",
"                        ",
"                        ",
"                        ",
"                        ",
"                        ",
"                        "
};
