/* XPM */
static char *stick_active[] = {
/* columns rows colors chars-per-pixel */
"24 25 9 1 ",
"  c #222D32",
". c #253035",
"X c #29353B",
"o c #677175",
"O c #677176",
"+ c #677277",
"@ c #96A0A4",
"# c #97A1A5",
"$ c #A4ADB2",
/* pixels */
"XXXXXXXXXXXXXXXXXXXXXXXX",
"                        ",
"                        ",
"                        ",
"                        ",
"                        ",
"                        ",
"                        ",
"                        ",
"                        ",
"         .+#@O.         ",
"         O$$$$O         ",
"         #$$$$#         ",
"         @$$$$@         ",
"         O$$$$o         ",
"         .O@@O.         ",
"                        ",
"                        ",
"                        ",
"                        ",
"                        ",
"                        ",
"                        ",
"                        ",
"                        "
};
