/* XPM */
static char *stick_inactive[] = {
/* columns rows colors chars-per-pixel */
"24 25 10 1 ",
"  c #222D32",
". c #242F34",
"X c #29353B",
"o c #475156",
"O c #485156",
"+ c #606A6F",
"@ c #616A6F",
"# c #616B6F",
"$ c #616B70",
"% c #677176",
/* pixels */
"XXXXXXXXXXXXXXXXXXXXXXXX",
"                        ",
"                        ",
"                        ",
"                        ",
"                        ",
"                        ",
"                        ",
"                        ",
"                        ",
"         .O#@o.         ",
"         o%%%%o         ",
"         #%%%%$         ",
"         @%%%%+         ",
"         o%%%%o         ",
"         .o@@o.         ",
"                        ",
"                        ",
"                        ",
"                        ",
"                        ",
"                        ",
"                        ",
"                        ",
"                        "
};
