/* XPM */
static char *stick_pressed[] = {
/* columns rows colors chars-per-pixel */
"24 25 30 1 ",
"  c #222D32",
". c #222E33",
"X c #232E33",
"o c #29353B",
"O c #2D373D",
"+ c #2D383D",
"@ c #2E383D",
"# c #2E383E",
"$ c #2E393E",
"% c #343F44",
"& c #343F45",
"* c #354045",
"= c #384248",
"- c #384348",
"; c #394349",
": c #3F494F",
"> c #3F4A4F",
", c #404A4F",
"< c #424D52",
"1 c #434E53",
"2 c #444F54",
"3 c #475257",
"4 c #8E979C",
"5 c #8E989C",
"6 c #8E999D",
"7 c #C0C9CE",
"8 c #C1CACF",
"9 c #C2CBCE",
"0 c #C2CBCF",
"q c #CFD8DC",
/* pixels */
"oooooooooooooooooooooooo",
"                        ",
"                        ",
"       X$;:<<:;$X       ",
"      +,22222222>+      ",
"    .*222222222222&     ",
"    *22222222222222&    ",
"   +2222222222222222O   ",
"  X>2222222222222222,X  ",
"  $222222222222222222#  ",
"  ;222222369853222222-  ",
"  >2222225qqqq5222222:  ",
"  <2222229qqqq0222222<  ",
"  <2222228qqqq72222221  ",
"  >2222225qqqq4222222:  ",
"  ;222222358853222222=  ",
"  $222222222222222222@  ",
"  X>2222222222222222,X  ",
"   +2222222222222222O   ",
"    &22222222222222%    ",
"     &222222222222&     ",
"      O>22222222>O      ",
"       X#-:<<:-@X       ",
"                        ",
"                        "
};
