/* XPM */
static char *stick_toggled_inactive[] = {
/* columns rows colors chars-per-pixel */
"24 25 13 1 ",
"  c #222D32",
". c #242F34",
"X c #2A3439",
"o c #29353A",
"O c #29353B",
"+ c #2A343A",
"@ c #475156",
"# c #485156",
"$ c #535D62",
"% c #535D63",
"& c #545E63",
"* c #616A6F",
"= c #616B6F",
/* pixels */
"OOOOOOOOOOOOOOOOOOOOOOOO",
"                        ",
"                        ",
"                        ",
"                        ",
"                        ",
"                        ",
"                        ",
"                        ",
"                        ",
"         .#=*@.         ",
"         @$X+%@         ",
"         *+  o*         ",
"         *+  o*         ",
"         @%+o&@         ",
"         .@**@.         ",
"                        ",
"                        ",
"                        ",
"                        ",
"                        ",
"                        ",
"                        ",
"                        ",
"                        "
};
