/* XPM */
static char *button38[] = {
/* columns rows colors chars-per-pixel */
"36 38 83 1 ",
"  c #222D32",
". c #222E33",
"X c #232E33",
"o c #242F34",
"O c #253035",
"+ c #263136",
"@ c #263137",
"# c #273237",
"$ c #283238",
"% c #283338",
"& c #293338",
"* c #293439",
"= c #2A3439",
"- c #29343A",
"; c #29353B",
": c #2A343A",
"> c #2A353A",
", c #2C363C",
"< c #2C373C",
"1 c #2D373D",
"2 c #2D383D",
"3 c #2D393E",
"4 c #2E383E",
"5 c #2E393E",
"6 c #2F393E",
"7 c #2F393F",
"8 c #2F3A3F",
"9 c #303A3F",
"0 c #303B40",
"q c #313C41",
"w c #323C42",
"e c #323D42",
"r c #323D43",
"t c #333E43",
"y c #333E44",
"u c #343F44",
"i c #353F45",
"p c #354045",
"a c #364045",
"s c #364046",
"d c #364146",
"f c #374247",
"g c #384247",
"h c #384248",
"j c #384348",
"k c #394348",
"l c #384349",
"z c #394349",
"x c #394449",
"c c #3A444A",
"v c #3A454A",
"b c #3B454B",
"n c #3B464B",
"m c #3C464C",
"M c #3C474C",
"N c #3D474D",
"B c #3D484D",
"V c #3D484E",
"C c #3E494E",
"Z c #3F494E",
"A c #3F494F",
"S c #3F4A4F",
"D c #404B50",
"F c #414B50",
"G c #414B51",
"H c #414C51",
"J c #424C52",
"K c #424D52",
"L c #434D53",
"P c #434E53",
"I c #444E53",
"U c #444F54",
"Y c #4D585D",
"T c #566065",
"R c #576266",
"E c #5B666B",
"W c #6E787D",
"Q c #919BA0",
"! c #A9B2B6",
"~ c #B2BCC0",
"^ c #B8C1C5",
"/ c #CAD3D7",
"( c #CFD8DC",
/* pixels */
";;;;;;;;;;;;;;;;;;;;;;;;;;;;;;;;;;;;",
"@@@@@@@@@@@@@@@@@@@@@@@@@@@@@@@@@@@@",
"                                    ",
"                                    ",
"           X+$158qq851$+X           ",
"          o%9dbAHLLHAbd8%o          ",
"         *0nCJLPUUUUPLJCn0*         ",
"       .<uDKUUUUUUUUUUUUKDu<        ",
"      .3xPUUUUUUUUUUUUUUUUPl2       ",
"      3xPUUUUUUUUUUUUUUUUUULl2      ",
"     >fLUUUUUUUUUUUUUUUUUUUULf-     ",
"    $eJUUUUUUUUUUUUUUUUUUUUUUJw$    ",
"   X<CPUUUUUUUUUUUUUUUUUUUUUUPZ<X   ",
"   OpKUUUUUUUUUUUUUUUUUUUUUUUUKaO   ",
"  o<xUUUUUUUUUUUUUUUUUUUUUUUUUUx,o  ",
"  owSUUUUUUUUUUUUUUUUUUUUUUUUUUCqo  ",
"  +dGUUUUUUUUUUUUUUUUUUUUUUUUUUDs+  ",
"  #vJUUUUUUUUUUUUUUUUUUUUUUUUUUJc#  ",
"  #mPUUUUUUUUUUUUUUUUUUUUUUUUUUPm#  ",
"  #BPUUUUUUUUUUUUUUUUUUUUUUUUUUPB#  ",
"  #BPUUUUUUUUUUUUUUUUUUUUUUUUUUUV#  ",
"  #nLUUUUUUUUUUUUUUUUUUUUUUUUUUPb#  ",
"  +kJUUUUUUUUUUUUUUUUUUUUUUUUUUJh+  ",
"  +iSUUUUUUUUUUUUUUUUUUUUUUUUUUCu+  ",
"  o5BUUUUUUUUUUUUUUUUUUUUUUUUUUN4o  ",
"   *jPUUUUUUUUUUUUUUUUUUUUUUUUIg&   ",
"   XeDPUUUUUUUUUUUUUUUUUUUUUUIFeX   ",
"    %jPUUUUUUUUUUUUUUUUUUUUUUPk%    ",
"    O3MUUUUUUUUUUUUUUUUUUUUUUM2O    ",
"     +rVUUUUUUUUUUUUUUUUUUUUVe+     ",
"      #yVUUUUUUUUUUUUUUUUUUVt#      ",
"       #rMPUUUUUUUUUUUUUUPMr#       ",
"        +1zGUUUUUUUUUUUUGz1+        ",
"         O$efBSHPPPPHSBfe$O         ",
"           X:7uhvmmvhu6=X           ",
"             oOO+##+OOo             ",
"                                    ",
"                                    "
};
