/* XPM */
static char *close_pressed[] = {
/* columns rows colors chars-per-pixel */
"30 31 204 2 ",
"   c #1F383E",
".  c #202B2F",
"X  c #202B30",
"o  c #212B30",
"O  c #212C30",
"+  c #202C31",
"@  c #212C31",
"#  c #202D31",
"$  c #212D31",
"%  c #222C31",
"&  c #202D32",
"*  c #212D32",
"=  c #202D33",
"-  c #212D33",
";  c #222C32",
":  c #222D32",
">  c #222D33",
",  c #212E33",
"<  c #222E33",
"1  c #242F35",
"2  c #203339",
"3  c #203439",
"4  c #29353B",
"5  c #1D3940",
"6  c #1D3941",
"7  c #1D3A40",
"8  c #1E3A41",
"9  c #1E3B41",
"0  c #1E3B42",
"q  c #1B3F46",
"w  c #1E3D44",
"e  c #1E3D45",
"r  c #1B4149",
"t  c #1B4249",
"y  c #1D4148",
"u  c #1C434C",
"i  c #1C444C",
"p  c #1A4850",
"a  c #1A4851",
"s  c #184A53",
"d  c #1B4A53",
"f  c #184A54",
"g  c #194A54",
"h  c #194B55",
"j  c #184D56",
"k  c #184F59",
"l  c #194F59",
"z  c #1A4F59",
"x  c #18505A",
"c  c #18515B",
"v  c #18535E",
"b  c #155963",
"n  c #175963",
"m  c #155964",
"M  c #155A65",
"N  c #165A65",
"B  c #155A66",
"V  c #165B66",
"C  c #155C67",
"Z  c #165C67",
"A  c #155C68",
"S  c #155D69",
"D  c #146673",
"F  c #146774",
"G  c #136975",
"H  c #126976",
"J  c #136976",
"K  c #136A76",
"L  c #126A77",
"P  c #126B77",
"I  c #12707D",
"U  c #11707E",
"Y  c #11717E",
"T  c #12707E",
"R  c #0F7686",
"E  c #0E7786",
"W  c #0F7786",
"Q  c #0E7886",
"!  c #0D7B8B",
"~  c #0D7B8C",
"^  c #0D7D8E",
"/  c #0D7E8E",
"(  c #107280",
")  c #107483",
"_  c #107583",
"`  c #0D8292",
"'  c #0C8798",
"]  c #0B8899",
"[  c #0C8899",
"{  c #0C889A",
"}  c #0B8A9C",
"|  c #0992A4",
" . c #0893A5",
".. c #0893A6",
"X. c #0993A6",
"o. c #0893A7",
"O. c #0896A9",
"+. c #0896AA",
"@. c #0897AA",
"#. c #0798AB",
"$. c #0898AB",
"%. c #079EB2",
"&. c #05A3B8",
"*. c #05A4B8",
"=. c #05A4B9",
"-. c #05A5B9",
";. c #04A7BC",
":. c #04A8BE",
">. c #04A9BF",
",. c #04AABF",
"<. c #04ABC1",
"1. c #03ACC1",
"2. c #03ACC2",
"3. c #03ADC4",
"4. c #03AFC6",
"5. c #02B0C6",
"6. c #02B1C8",
"7. c #02B2C8",
"8. c #02B2C9",
"9. c #02B4CB",
"0. c #01B7CD",
"q. c #01B7CE",
"w. c #01B7CF",
"e. c #01B9D0",
"r. c #01B9D1",
"t. c #01BAD1",
"y. c #00BAD2",
"u. c #00BBD2",
"i. c #00BCD4",
"p. c #02BDD4",
"a. c #03BDD4",
"s. c #03BDD5",
"d. c #04BDD5",
"f. c #09BED5",
"g. c #0ABFD6",
"h. c #0CBFD6",
"j. c #0FC0D7",
"k. c #10C0D7",
"l. c #11C0D7",
"z. c #11C1D7",
"x. c #12C1D7",
"c. c #13C1D7",
"v. c #15C1D7",
"b. c #13C1D8",
"n. c #15C1D8",
"m. c #15C2D8",
"M. c #17C2D8",
"N. c #18C2D8",
"B. c #21C5DA",
"V. c #3ECCDE",
"C. c #40CDDF",
"Z. c #48CFE0",
"A. c #4AD0E1",
"S. c #4FD1E1",
"D. c #50D1E1",
"F. c #51D2E2",
"G. c #55D2E2",
"H. c #5DD4E3",
"J. c #5ED5E4",
"K. c #6DD8E6",
"L. c #6DD9E6",
"P. c #73DAE7",
"I. c #74DBE8",
"U. c #77DBE8",
"Y. c #7BDCE8",
"T. c #7BDCE9",
"R. c #7CDDE9",
"E. c #81DEEA",
"W. c #82DEEA",
"Q. c #87DFEB",
"!. c #99E4EE",
"~. c #9CE5EE",
"^. c #ABE9F1",
"/. c #ACE9F1",
"(. c #BFEEF5",
"). c #C0EEF5",
"_. c #CCF1F6",
"`. c #CCF1F7",
"'. c #CEF2F7",
"]. c #D0F2F7",
"[. c #D4F3F8",
"{. c #D5F4F8",
"}. c #D6F4F8",
"|. c #D7F5F9",
" X c #D8F5F8",
".X c #D9F5F9",
"XX c #DAF5F9",
"oX c #DBF5F9",
"OX c #DCF6F9",
"+X c #DDF6F9",
"@X c #E0F7FA",
"#X c #E2F7FA",
"$X c #E4F8FB",
"%X c #E5F8FB",
"&X c #E6F8FB",
"*X c #E7F9FB",
"=X c #E9F9FC",
"-X c #EAF9FC",
";X c #F7FDFE",
":X c #F8FDFE",
">X c #FAFEFE",
",X c #FBFEFE",
"<X c #FCFEFE",
"1X c white",
/* pixels */
"4 4 4 4 4 4 4 4 4 4 4 4 4 4 4 4 4 4 4 4 4 4 4 4 4 4 4 4 4 4 ",
"1 1 1 1 1 1 1 1 1 1 1 1 1 1 1 1 1 1 1 1 1 1 1 1 1 1 1 1 1 1 ",
": : : : : : : : : : : : : ; ; ; ; : : : : : : : : : : : : : ",
": : : : : : : : : <   e d v n n v d w   < : : : : : : : : : ",
": : : : : : : : 3 u F { %.3.q.q.3.%.[ D u 2 : : : : : : : : ",
": : : : : : : y P -.9.e.u.i.i.i.i.u.e.9.*.L y : : : : : : : ",
": : : : : : l ` q.e.i.i.i.i.i.i.i.i.i.i.e.q.` z > : : : : : ",
": : : : ; l } i.i.i.i.i.i.i.i.i.i.i.i.i.i.i.i.} z ; : : : : ",
": : : ; i ] i.i.i.i.i.i.i.i.i.i.i.i.i.i.i.i.i.i.' i ; : : : ",
": : : 0 U y.i.i.i.i.i.i.i.i.i.i.i.i.i.i.i.i.i.i.y.T 9 : : : ",
": : , c ,.y.i.i.i.i.i.i.i.i.i.i.i.i.i.i.i.i.i.i.y.<.c , : : ",
": : 8 ) t.i.i.i.i.i.^.~.C.g.i.i.f.V.!./.i.i.i.i.i.t._ 8 : : ",
": ; a X.i.i.i.i.i.m.`.:X].A.h.h.Z._.;X'.m.i.i.i.i.i.| p ; : ",
": @ V =.i.i.i.i.i.s.U.$X>X}.J.H.[.>X*XY.a.i.i.i.i.i.&.N @ : ",
": @ K 5.i.i.i.i.i.i.b.R.%X>XoXXX>X=XE.M.i.i.i.i.i.i.4.J @ : ",
": @ Y w.i.i.i.i.i.i.i.l.U.#X1X1X-XW.N.i.i.i.i.i.i.i.w.Y @ : ",
": @ Y w.i.i.i.i.i.i.i.j.I.@X1X1X&XT.x.i.i.i.i.i.i.i.0.I @ : ",
": @ J 8.i.i.i.i.i.i.h.F. X,X&X&X<XOXG.h.i.i.i.i.i.i.7.G @ : ",
": @ A >.i.i.i.i.i.p.S.|.<X#XQ.Q.#XXX.XD.p.i.i.i.i.i.:.Z @ : ",
": @ x $.i.i.i.i.i.n.(.,X@XP.c.c.P.@X&X).v.i.i.i.i.i.@.k @ : ",
": @ t W i.i.i.i.i.z.OX{.L.z.i.i.k.K.{.+Xz.i.i.i.i.i.R r @ : ",
": : & m 2.i.i.i.i.i.k.B.d.i.i.i.i.d.B.k.i.i.i.i.i.3.M = : : ",
": : * 7 / y.i.i.i.i.i.i.i.i.i.i.i.i.i.i.i.i.i.i.y.^ 6 - : : ",
": : : @ h ..i.i.i.i.i.i.i.i.i.i.i.i.i.i.i.i.i.i. .g @ : : : ",
": : : ; o S +.i.i.i.i.i.i.i.i.i.i.i.i.i.i.i.i.O.C o ; : : : ",
": : : : % + A o.u.i.i.i.i.i.i.i.i.i.i.i.i.u...A + % : : : : ",
": : : : : @ X f ~ 1.i.i.i.i.i.i.i.i.i.i.1.! s X @ : : : : : ",
": : : : : : ; o 5 b Q #.;.6.w.w.6.;.#.E b 5 o ; : : : : : : ",
": : : : : : : : $ # q j B H ( ( H B j q # $ : : : : : : : : ",
": : : : : : : : : @ @ O X X . . X X O @ @ : : : : : : : : : ",
": : : : : : : : : : : : ; % @ @ % ; : : : : : : : : : : : : "
};
