/* XPM */
static char *close_active[] = {
/* columns rows colors chars-per-pixel */
"30 31 81 1 ",
"  c #222D32",
". c #232E33",
"X c #242F34",
"o c #242F35",
"O c #273236",
"+ c #273237",
"@ c #283338",
"# c #293338",
"$ c #29353B",
"% c #2A343A",
"& c #2A353A",
"* c #2B353A",
"= c #2A363A",
"- c #2B363B",
"; c #2B373B",
": c #2C363B",
"> c #2C373C",
", c #2D383D",
"< c #2F3A3E",
"1 c #333E43",
"2 c #424C51",
"3 c #434D52",
"4 c #475256",
"5 c #485257",
"6 c #4A555A",
"7 c #4B555A",
"8 c #4C565B",
"9 c #4D585C",
"0 c #515C60",
"q c #525C61",
"w c #596569",
"e c #5A6469",
"r c #5D676B",
"t c #5D676C",
"y c #5C686B",
"u c #5E686D",
"i c #5F696E",
"p c #606B6F",
"a c #616B6F",
"s c #616B70",
"d c #646F72",
"f c #646F73",
"g c #677175",
"h c #677275",
"j c #707A7F",
"k c #717C80",
"l c #798388",
"z c #7A8388",
"x c #838D92",
"c c #848E93",
"v c #899398",
"b c #8A9499",
"n c #8B9599",
"m c #8B959A",
"M c #8D989C",
"N c #8F989D",
"B c #8E999D",
"V c #8F999E",
"C c #909A9E",
"Z c #919A9F",
"A c #919B9F",
"S c #929C9F",
"D c #929BA0",
"F c #929CA0",
"G c #939CA1",
"H c #949DA2",
"J c #949EA2",
"K c #959FA3",
"L c #969FA3",
"P c #969FA4",
"I c #96A0A5",
"U c #97A0A5",
"Y c #97A1A5",
"T c #98A1A5",
"R c #99A3A7",
"E c #99A3A8",
"W c #A0A9AE",
"Q c #A1AAAF",
"! c #A1ABAF",
"~ c #A2ABB0",
"^ c #A4ADB2",
/* pixels */
"$$$$$$$$$$$$$$$$$$$$$$$$$$$$$$",
"oooooooooooooooooooooooooooooo",
"                              ",
"                              ",
"                              ",
"                              ",
"                              ",
"                              ",
"                              ",
"                              ",
"                              ",
"          lk3+  O2jz          ",
"         ,vWm5@@4bWn,         ",
"         .uPQNq0MQTaX         ",
"          -sI~ZZ!Rd,          ",
"           *iK^^Ef<           ",
"           %tH^^Up;           ",
"          @8C~TT~F9#          ",
"         .6V~LhgLSA7.         ",
"         >x~Jy;:rJYc>         ",
"         -DBw=  *eBG-         ",
"          &1X    X1&          ",
"                              ",
"                              ",
"                              ",
"                              ",
"                              ",
"                              ",
"                              ",
"                              ",
"                              "
};
