/* XPM */
static char *close_inactive[] = {
/* columns rows colors chars-per-pixel */
"30 31 58 1 ",
"  c #222D32",
". c #232E33",
"X c #242F34",
"o c #242F35",
"O c #253034",
"+ c #253035",
"@ c #263035",
"# c #263136",
"$ c #273136",
"% c #273137",
"& c #273237",
"* c #283237",
"= c #283338",
"- c #29353B",
"; c #2B363B",
": c #333D42",
"> c #343E43",
", c #364045",
"< c #364145",
"1 c #374247",
"2 c #384247",
"3 c #384347",
"4 c #394448",
"5 c #3C464B",
"6 c #404A4F",
"7 c #424C50",
"8 c #424C51",
"9 c #434C52",
"0 c #434D52",
"q c #434E52",
"w c #434E53",
"e c #444E53",
"r c #454F55",
"t c #455055",
"y c #475156",
"u c #4C565B",
"i c #4D565C",
"p c #515B60",
"a c #566065",
"s c #596368",
"d c #5A6369",
"f c #5A6469",
"g c #5B646A",
"h c #5B656A",
"j c #5C666B",
"k c #5D666B",
"l c #5D676C",
"z c #5E686C",
"x c #5E686D",
"c c #5F696E",
"v c #60696E",
"b c #606A6E",
"n c #606A6F",
"m c #616B6F",
"M c #616B70",
"N c #656F74",
"B c #667075",
"V c #677176",
/* pixels */
"------------------------------",
"oooooooooooooooooooooooooooooo",
"                              ",
"                              ",
"                              ",
"                              ",
"                              ",
"                              ",
"                              ",
"                              ",
"                              ",
"          pi>O  X:up          ",
"         =dNg<++,sNf=         ",
"         .9nBj55hBMq.         ",
"          *enBllBMr=          ",
"           $0vVVMt=           ",
"           #8cVVnw&           ",
"          +3kBmmBx4@          ",
"         .1kBbyybzl2.         ",
"         =aBc8&&7cna*         ",
"         &xj6%  $6jx&         ",
"          #;.    .;#          ",
"                              ",
"                              ",
"                              ",
"                              ",
"                              ",
"                              ",
"                              ",
"                              ",
"                              "
};
