/* XPM */
static char *hide_active[] = {
/* columns rows colors chars-per-pixel */
"30 31 13 1 ",
"  c #222D32",
". c #242F35",
"X c #29353B",
"o c #2A353A",
"O c #2B363B",
"+ c #2F3A3F",
"@ c #374247",
"# c #4C565B",
"$ c #596368",
"% c #939CA1",
"& c #97A0A5",
"* c #A0A9AE",
"= c #A4ADB2",
/* pixels */
"XXXXXXXXXXXXXXXXXXXXXXXXXXXXXX",
"..............................",
"                              ",
"                              ",
"                              ",
"                              ",
"                              ",
"                              ",
"                              ",
"                              ",
"                              ",
"                              ",
"                              ",
"                              ",
"                              ",
"                              ",
"                              ",
"                              ",
"          #$$$$$$$$#          ",
"         +&========&+         ",
"         O%********%O         ",
"          o@@@@@@@@o          ",
"                              ",
"                              ",
"                              ",
"                              ",
"                              ",
"                              ",
"                              ",
"                              ",
"                              "
};
