/* XPM */
static char *menu_pressed[] = {
/* columns rows colors chars-per-pixel */
"30 31 28 1 ",
"  c #222D32",
". c #212F35",
"X c #242F35",
"o c #20363C",
"O c #29353B",
"+ c #2D373C",
"@ c #2E393E",
"# c #323D42",
"$ c #333E43",
"% c #3E494D",
"& c #15626E",
"* c #434E53",
"= c #545E63",
"- c #596468",
"; c #656F74",
": c #6B7579",
"> c #117583",
", c #107786",
"< c #04AABF",
"1 c #7B8589",
"2 c #00BCD4",
"3 c #8C969A",
"4 c #97A0A5",
"5 c #A8B1B6",
"6 c #B8C1C6",
"7 c #BEC7CB",
"8 c #C9D2D7",
"9 c #CFD8DC",
/* pixels */
"OOOOOOOOOOOOOOOOOOOOOOOOOOOOOO",
"XXXXXXXXXXXXXXXXXXXXXXXXXXXXXX",
"                              ",
"                              ",
"                              ",
"                              ",
"                              ",
"                              ",
"                              ",
"                              ",
"                              ",
"          4555555554          ",
"         $7999999997$         ",
"          1333333331          ",
"          #********#          ",
"         $7999999997$         ",
"         $7999999997$         ",
"          =;;;;;;;;=          ",
"          -::::::::-          ",
"         $7999999997$         ",
"         @6888888886@         ",
"          +%%%%%%%%+          ",
"                              ",
"                              ",
"                              ",
"   oooooooooooooooooooooooo   ",
"  &<<<<<<<<<<<<<<<<<<<<<<<<&  ",
"  >222222222222222222222222>  ",
"  .,,,,,,,,,,,,,,,,,,,,,,,,.  ",
"                              ",
"                              "
};
