/* XPM */
static char *shade_toggled_active[] = {
/* columns rows colors chars-per-pixel */
"30 31 19 1 ",
"  c #222D32",
". c #242F35",
"X c #29353B",
"o c #333E43",
"O c #343F44",
"+ c #3F4A4F",
"@ c #414B50",
"# c #485257",
"$ c #4C575C",
"% c #4D575C",
"& c #4E595E",
"* c #4F5A5E",
"= c #4F5A5F",
"- c #545F64",
"; c #7C868B",
": c #818B90",
"> c #838D91",
", c #838D92",
"< c #A4ADB2",
/* pixels */
"XXXXXXXXXXXXXXXXXXXXXXXXXXXXXX",
"..............................",
"                              ",
"                              ",
"                              ",
"                              ",
"                              ",
"                              ",
"                              ",
"                              ",
"                              ",
"                              ",
"                              ",
"          o+------@O          ",
"          %:<<<<<<,=          ",
"           $:<<<<,*           ",
"            $:<<>&            ",
"             %;;&             ",
"              ##              ",
"                              ",
"                              ",
"                              ",
"                              ",
"                              ",
"                              ",
"                              ",
"                              ",
"                              ",
"                              ",
"                              ",
"                              "
};
