/* XPM */
static char *shade_toggled_inactive[] = {
/* columns rows colors chars-per-pixel */
"30 31 17 1 ",
"  c #222D32",
". c #242F35",
"X c #29353B",
"o c #2B363B",
"O c #2C373C",
"+ c #323D42",
"@ c #364146",
"# c #394348",
"$ c #394449",
"% c #3A4449",
"& c #3A454A",
"* c #3D474C",
"= c #525C61",
"- c #555F64",
"; c #556065",
": c #566065",
"> c #677176",
/* pixels */
"XXXXXXXXXXXXXXXXXXXXXXXXXXXXXX",
"..............................",
"                              ",
"                              ",
"                              ",
"                              ",
"                              ",
"                              ",
"                              ",
"                              ",
"                              ",
"                              ",
"                              ",
"          o+******+O          ",
"          $->>>>>>:&          ",
"           #->>>>:&           ",
"            #->>;%            ",
"             $==%             ",
"              @@              ",
"                              ",
"                              ",
"                              ",
"                              ",
"                              ",
"                              ",
"                              ",
"                              ",
"                              ",
"                              ",
"                              ",
"                              "
};
