/* XPM */
static char *shade_inactive[] = {
/* columns rows colors chars-per-pixel */
"30 31 19 1 ",
"  c #222D32",
". c #242F35",
"X c #29353B",
"o c #303A3F",
"O c #303B40",
"+ c #333D42",
"@ c #333E43",
"# c #343E43",
"$ c #343F44",
"% c #353F44",
"& c #404A4F",
"* c #404B50",
"= c #4A5459",
"- c #4C565B",
"; c #4D575C",
": c #4F595E",
"> c #505A5F",
", c #515B60",
"< c #677176",
/* pixels */
"XXXXXXXXXXXXXXXXXXXXXXXXXXXXXX",
"..............................",
"                              ",
"                              ",
"                              ",
"                              ",
"                              ",
"                              ",
"                              ",
"                              ",
"                              ",
"                              ",
"                              ",
"              oO              ",
"             @-;$             ",
"            #:<<,%            ",
"           #:<<<<,%           ",
"          #><<<<<<,%          ",
"          +&======*#          ",
"                              ",
"                              ",
"                              ",
"                              ",
"                              ",
"                              ",
"                              ",
"                              ",
"                              ",
"                              ",
"                              ",
"                              "
};
