/* XPM */
static char *shade_active[] = {
/* columns rows colors chars-per-pixel */
"30 31 23 1 ",
"  c #222D32",
". c #242F35",
"X c #29353B",
"o c #3B464B",
"O c #3C474C",
"+ c #414C51",
"@ c #424D52",
"# c #434D52",
"$ c #434E53",
"% c #444F54",
"& c #454F54",
"* c #455055",
"= c #5A6469",
"- c #5B656A",
"; c #6D777C",
": c #707A7F",
"> c #737D82",
", c #778085",
"< c #778186",
"1 c #798388",
"2 c #7A8388",
"3 c #7A8489",
"4 c #A4ADB2",
/* pixels */
"XXXXXXXXXXXXXXXXXXXXXXXXXXXXXX",
"..............................",
"                              ",
"                              ",
"                              ",
"                              ",
"                              ",
"                              ",
"                              ",
"                              ",
"                              ",
"                              ",
"                              ",
"              oO              ",
"             @:>%             ",
"            #,441&            ",
"           #<44442&           ",
"          $<4444443*          ",
"          +=;;;;;;-$          ",
"                              ",
"                              ",
"                              ",
"                              ",
"                              ",
"                              ",
"                              ",
"                              ",
"                              ",
"                              ",
"                              ",
"                              "
};
