/* XPM */
static char *shade_toggled_pressed[] = {
/* columns rows colors chars-per-pixel */
"30 31 88 1 ",
"  c #222D32",
". c #222E33",
"X c #232E33",
"o c #242F34",
"O c #242F35",
"+ c #253035",
"@ c #263036",
"# c #263136",
"$ c #273237",
"% c #283237",
"& c #283238",
"* c #283338",
"= c #293339",
"- c #293439",
"; c #29353B",
": c #2A343A",
"> c #2A353A",
", c #2A353B",
"< c #2B353B",
"1 c #2A363B",
"2 c #2B363B",
"3 c #2C373C",
"4 c #2D383D",
"5 c #2E383D",
"6 c #2D383E",
"7 c #2E383E",
"8 c #2E393E",
"9 c #303B40",
"0 c #313B41",
"q c #313C41",
"w c #323C42",
"e c #323D42",
"r c #333E43",
"t c #343E43",
"y c #343F44",
"u c #353F44",
"i c #353F45",
"p c #354045",
"a c #364046",
"s c #364146",
"d c #364147",
"f c #374247",
"g c #374248",
"h c #384348",
"j c #384349",
"k c #394349",
"l c #394449",
"z c #3A454A",
"x c #3A454B",
"c c #3B454B",
"v c #3B464B",
"b c #3B464C",
"n c #3C464C",
"m c #3C474C",
"M c #3D484D",
"N c #3E494E",
"B c #3F494E",
"V c #3F494F",
"C c #3F4A4F",
"Z c #404A4F",
"A c #404A50",
"S c #404B50",
"D c #414B50",
"F c #414B51",
"G c #414C51",
"H c #424C52",
"J c #424D52",
"K c #434E53",
"L c #444F53",
"P c #444E54",
"I c #444F54",
"U c #576166",
"Y c #586368",
"T c #646E73",
"R c #657074",
"E c #6D767B",
"W c #717B80",
"Q c #727C81",
"! c #747E83",
"~ c #747F83",
"^ c #747F84",
"/ c #758084",
"( c #7A8489",
") c #A5AEB2",
"_ c #AAB3B8",
"` c #AAB4B8",
"' c #ACB6BA",
"] c #CFD8DC",
/* pixels */
";;;;;;;;;;;;;;;;;;;;;;;;;;;;;;",
"OOOOOOOOOOOOOOOOOOOOOOOOOOOOOO",
"                              ",
"         X+#-2332-#+X         ",
"        o*9kMFJJFMk9*o        ",
"       $qBJKPIIIIPKJNq$       ",
"     .1fKKIIIIIIIIIIKKd,      ",
"     1lIIIIIIIIIIIIIIIIj,     ",
"    *hIIIIIIIIIIIIIIIIIIg&    ",
"   @ePIIIIIIIIIIIIIIIIIILw@   ",
"  X2APIIIIIIIIIIIIIIIIIILZ2X  ",
"  @rKIIIIIIIIIIIIIIIIIIIIKt@  ",
"  -cIIIIIIIIIIIIIIIIIIIIIIz=  ",
"  5VIIIIIIUT((((((RYIIIIIIN4  ",
"  qGIIIIIIQ`]]]]]]'/IIIIIIG9  ",
"  eKIIIIIIIQ`]]]]'^IIIIIIIKe  ",
"  eKIIIIIIIIW_]]'~IIIIIIIIKe  ",
"  qHIIIIIIIIIQ))!IIIIIIIIIJ9  ",
"  8AIIIIIIIIIIEEIIIIIIIIIIA7  ",
"  2mIIIIIIIIIIIIIIIIIIIIIIn<  ",
"  *yIIIIIIIIIIIIIIIIIIIIIIu%  ",
"  X4SIIIIIIIIIIIIIIIIIIIID4X  ",
"   #sPIIIIIIIIIIIIIIIIIILa@   ",
"    >xIIIIIIIIIIIIIIIIIIz:    ",
"     6bIIIIIIIIIIIIIIIIv8     ",
"      6xPIIIIIIIIIIIIPx6      ",
"       :pSIIIIIIIIIISp:       ",
"        #4imCHKKHCmu4#        ",
"         X$>70rr07>$X         ",
"                              ",
"                              "
};
