/* XPM */
static char *stick_toggled_inactive[] = {
/* columns rows colors chars-per-pixel */
"30 31 39 1 ",
"  c #222D32",
". c #232E33",
"X c #242F35",
"o c #263136",
"O c #273137",
"+ c #263237",
"@ c #273338",
"# c #283238",
"$ c #283338",
"% c #29353B",
"& c #2D383D",
"* c #374147",
"= c #364247",
"- c #374247",
"; c #384247",
": c #3C464B",
"> c #3E484D",
", c #3F494E",
"< c #3F494F",
"1 c #404B50",
"2 c #414B50",
"3 c #434D52",
"4 c #444D52",
"5 c #464F55",
"6 c #455055",
"7 c #475055",
"8 c #475155",
"9 c #485257",
"0 c #4C555A",
"q c #4C565A",
"w c #4E585D",
"e c #525C61",
"r c #535C61",
"t c #535D63",
"y c #545D62",
"u c #565F65",
"i c #566065",
"p c #576166",
"a c #586166",
/* pixels */
"%%%%%%%%%%%%%%%%%%%%%%%%%%%%%%",
"XXXXXXXXXXXXXXXXXXXXXXXXXXXXXX",
"                              ",
"                              ",
"                              ",
"                              ",
"                              ",
"                              ",
"                              ",
"                              ",
"                              ",
"                              ",
"           .o;87-o.           ",
"           o4yq0t3o           ",
"           :e,$$<e:           ",
"           w5#  @6w           ",
"           w5#  @6w           ",
"           >p*O+=a>           ",
"           &9u21i9&           ",
"           .&2rr2&.           ",
"                              ",
"                              ",
"                              ",
"                              ",
"                              ",
"                              ",
"                              ",
"                              ",
"                              ",
"                              ",
"                              "
};
