/* XPM */
static char *stick_inactive[] = {
/* columns rows colors chars-per-pixel */
"30 31 26 1 ",
"  c #222D32",
". c #232E33",
"X c #242F35",
"o c #263136",
"O c #29353B",
"+ c #2D383D",
"@ c #374247",
"# c #384247",
"$ c #3C464B",
"% c #3E484D",
"& c #414B50",
"* c #434D52",
"= c #444D52",
"- c #475055",
"; c #475155",
": c #4A5459",
"> c #4D585D",
", c #4E585D",
"< c #535C61",
"1 c #5B656A",
"2 c #5C656A",
"3 c #5C666B",
"4 c #616B70",
"5 c #636D72",
"6 c #646E73",
"7 c #677176",
/* pixels */
"OOOOOOOOOOOOOOOOOOOOOOOOOOOOOO",
"XXXXXXXXXXXXXXXXXXXXXXXXXXXXXX",
"                              ",
"                              ",
"                              ",
"                              ",
"                              ",
"                              ",
"                              ",
"                              ",
"                              ",
"                              ",
"           .o#;-@o.           ",
"           o=2551*o           ",
"           $377773$           ",
"           ,677776,           ",
"           ,677776>           ",
"           %477774%           ",
"           +:4664:+           ",
"           .+&<<&+.           ",
"                              ",
"                              ",
"                              ",
"                              ",
"                              ",
"                              ",
"                              ",
"                              ",
"                              ",
"                              ",
"                              "
};
