/* XPM */
static char *stick_pressed[] = {
/* columns rows colors chars-per-pixel */
"30 31 104 2 ",
"   c #222D32",
".  c #222E33",
"X  c #232E33",
"o  c #242F34",
"O  c #242F35",
"+  c #253035",
"@  c #263036",
"#  c #263136",
"$  c #273237",
"%  c #283237",
"&  c #283238",
"*  c #283338",
"=  c #293339",
"-  c #293439",
";  c #29353B",
":  c #2A343A",
">  c #2A353A",
",  c #2A353B",
"<  c #2B353B",
"1  c #2A363B",
"2  c #2B363B",
"3  c #2C373C",
"4  c #2D383D",
"5  c #2E383D",
"6  c #2D383E",
"7  c #2E383E",
"8  c #2E393E",
"9  c #303B40",
"0  c #313B41",
"q  c #313C41",
"w  c #323C42",
"e  c #323D42",
"r  c #333E43",
"t  c #343E43",
"y  c #343F44",
"u  c #353F44",
"i  c #353F45",
"p  c #354045",
"a  c #364046",
"s  c #364146",
"d  c #364147",
"f  c #374247",
"g  c #374248",
"h  c #384348",
"j  c #384349",
"k  c #394349",
"l  c #394449",
"z  c #3A454A",
"x  c #3A454B",
"c  c #3B454B",
"v  c #3B464B",
"b  c #3B464C",
"n  c #3C464C",
"m  c #3C474C",
"M  c #3D484D",
"N  c #3E494E",
"B  c #3F494E",
"V  c #3F494F",
"C  c #3F4A4F",
"Z  c #404A4F",
"A  c #404A50",
"S  c #404B50",
"D  c #414B50",
"F  c #414B51",
"G  c #414C51",
"H  c #424C52",
"J  c #424D52",
"K  c #434E53",
"L  c #444F53",
"P  c #444E54",
"I  c #444F54",
"U  c #455055",
"Y  c #4B565B",
"T  c #4C575C",
"R  c #5A6469",
"E  c #5A6569",
"W  c #6F797E",
"Q  c #6F7A7E",
"!  c #788286",
"~  c #7C868B",
"^  c #818B90",
"/  c #869094",
"(  c #869195",
")  c #8D969B",
"_  c #8D979B",
"`  c #939DA1",
"'  c #9BA4A9",
"]  c #9CA6A9",
"[  c #9CA5AA",
"{  c #9CA6AA",
"}  c #A5AEB3",
"|  c #B6C0C4",
" . c #B7C0C4",
".. c #B9C2C6",
"X. c #C2CBCF",
"o. c #C2CBD0",
"O. c #C3CCD0",
"+. c #C7D0D3",
"@. c #C7D0D4",
"#. c #C8D1D5",
"$. c #C9D2D5",
"%. c #C9D2D6",
"&. c #C9D2D7",
"*. c #CFD8DC",
/* pixels */
"; ; ; ; ; ; ; ; ; ; ; ; ; ; ; ; ; ; ; ; ; ; ; ; ; ; ; ; ; ; ",
"O O O O O O O O O O O O O O O O O O O O O O O O O O O O O O ",
"                                                            ",
"                  X + # - 2 3 3 2 - # + X                   ",
"                o * 9 k M F J J F M k 9 * o                 ",
"              $ q B J K P I I I I P K J N q $               ",
"          . 1 f K K I I I I I I I I I I K K d ,             ",
"          1 l I I I I I I I I I I I I I I I I j ,           ",
"        * h I I I I I I I I I I I I I I I I I I g &         ",
"      @ e P I I I I I I I I I I I I I I I I I I L w @       ",
"    X 2 A P I I I I I I I I I I I I I I I I I I L Z 2 X     ",
"    @ r K I I I I I I I I I I I I I I I I I I I I K t @     ",
"    - c I I I I I I I U Y Q _ ) W Y U I I I I I I I z =     ",
"    5 V I I I I I I I T (  .+.@.| / T I I I I I I I N 4     ",
"    q G I I I I I I I ! ..*.*.*.*...! I I I I I I I G 9     ",
"    e K I I I I I I I ] $.*.*.*.*.%.{ I I I I I I I K e     ",
"    e K I I I I I I I [ #.*.*.*.*.#.' I I I I I I I K e     ",
"    q H I I I I I I I ~ o.*.*.*.*.X.~ I I I I I I I J 9     ",
"    8 A I I I I I I I E ` O.&.&.O.` R I I I I I I I A 7     ",
"    2 m I I I I I I I U E ^ } } ^ E U I I I I I I I n <     ",
"    * y I I I I I I I I I I I I I I I I I I I I I I u %     ",
"    X 4 S I I I I I I I I I I I I I I I I I I I I D 4 X     ",
"      # s P I I I I I I I I I I I I I I I I I I L a @       ",
"        > x I I I I I I I I I I I I I I I I I I z :         ",
"          6 b I I I I I I I I I I I I I I I I v 8           ",
"            6 x P I I I I I I I I I I I I P x 6             ",
"              : p S I I I I I I I I I I S p :               ",
"                # 4 i m C H K K H C m u 4 #                 ",
"                  X $ > 7 0 r r 0 7 > $ X                   ",
"                                                            ",
"                                                            "
};
