/* XPM */
static char *stick_toggled_active[] = {
/* columns rows colors chars-per-pixel */
"30 31 39 1 ",
"  c #222D32",
". c #232E33",
"X c #242F35",
"o c #293439",
"O c #29353B",
"+ c #2A353A",
"@ c #2B363B",
"# c #2C373C",
"$ c #2D373D",
"% c #2D383D",
"& c #364146",
"* c #374146",
"= c #495358",
"- c #495359",
"; c #4A5459",
": c #4A555A",
"> c #525D62",
", c #566165",
"< c #566166",
"1 c #576166",
"2 c #586367",
"3 c #5B656A",
"4 c #5B656B",
"5 c #606A6F",
"6 c #636E72",
"7 c #646E73",
"8 c #657074",
"9 c #667075",
"0 c #697377",
"q c #697378",
"w c #6E797D",
"e c #6F797D",
"r c #737D82",
"t c #737E82",
"y c #7B858A",
"u c #7C868A",
"i c #7E888D",
"p c #838D91",
"a c #858F93",
/* pixels */
"OOOOOOOOOOOOOOOOOOOOOOOOOOOOOO",
"XXXXXXXXXXXXXXXXXXXXXXXXXXXXXX",
"                              ",
"                              ",
"                              ",
"                              ",
"                              ",
"                              ",
"                              ",
"                              ",
"                              ",
"                              ",
"           .o:98;o.           ",
"           +5iewi5+           ",
"           >y1$%2u>           ",
"           t6#  $7r           ",
"           t6#  $7r           ",
"           <a=@@-a,           ",
"           *qp34p0*           ",
"           .&3uu3&.           ",
"                              ",
"                              ",
"                              ",
"                              ",
"                              ",
"                              ",
"                              ",
"                              ",
"                              ",
"                              ",
"                              "
};
