/* XPM */
static char *stick_active[] = {
/* columns rows colors chars-per-pixel */
"30 31 35 1 ",
"  c #222D32",
". c #232E33",
"X c #242F35",
"o c #293439",
"O c #29353B",
"+ c #2A353A",
"@ c #364146",
"# c #374146",
"$ c #4A5459",
"% c #4A555A",
"& c #525D62",
"* c #566165",
"= c #566166",
"- c #5B656A",
"; c #606A6F",
": c #657074",
"> c #667075",
", c #6C767A",
"< c #6C767B",
"1 c #737D82",
"2 c #737E82",
"3 c #747E82",
"4 c #747E83",
"5 c #7C868A",
"6 c #8D969B",
"7 c #8D979C",
"8 c #8F989D",
"9 c #98A1A6",
"0 c #99A2A7",
"q c #9CA5AA",
"w c #9CA6AA",
"e c #9DA7AB",
"r c #9EA7AC",
"t c #9EA8AC",
"y c #A4ADB2",
/* pixels */
"OOOOOOOOOOOOOOOOOOOOOOOOOOOOOO",
"XXXXXXXXXXXXXXXXXXXXXXXXXXXXXX",
"                              ",
"                              ",
"                              ",
"                              ",
"                              ",
"                              ",
"                              ",
"                              ",
"                              ",
"                              ",
"           .o%>:$o.           ",
"           +;7wq6;+           ",
"           &8yyyy8&           ",
"           4ryyyyr3           ",
"           2eyyyye1           ",
"           =9yyyy9*           ",
"           #<0tt0,#           ",
"           .@-55-@.           ",
"                              ",
"                              ",
"                              ",
"                              ",
"                              ",
"                              ",
"                              ",
"                              ",
"                              ",
"                              ",
"                              "
};
