/* XPM */
static char *close_pressed[] = {
/* columns rows colors chars-per-pixel */
"20 20 88 1 ",
"  c #0E0E0F",
". c #262629",
"X c #27272A",
"o c #29292D",
"O c #2A2A2E",
"+ c #303034",
"@ c #333337",
"# c #3C3B37",
"$ c #3D3C37",
"% c #333338",
"& c #343439",
"* c #3E3C39",
"= c #3F3F3B",
"- c #3F3F3C",
"; c #403F3B",
": c #42413C",
"> c #43423D",
", c #44433F",
"< c #47453F",
"1 c #444340",
"2 c #484640",
"3 c #494740",
"4 c #4D4B43",
"5 c #4A4947",
"6 c #4D4B44",
"7 c #4D4C45",
"8 c #4E4D46",
"9 c #4B4A49",
"0 c #4D4C4B",
"q c #504E46",
"w c #525149",
"e c #51504F",
"r c #52514F",
"t c #55534C",
"y c #58564F",
"u c #5A595C",
"i c #5B5B5D",
"p c #5F5F62",
"a c #646367",
"s c #676769",
"d c #66656B",
"f c #6C6C72",
"g c #6D6D73",
"h c #6B6B74",
"j c #6B6B75",
"k c #777781",
"l c #797982",
"z c #7C7B86",
"x c #7C7C85",
"c c #7F7F8A",
"v c #828286",
"b c #848489",
"n c #83838E",
"m c #84848E",
"M c #858590",
"N c #868691",
"B c #888893",
"V c #8C8C93",
"C c #888894",
"Z c #8B8B97",
"A c #8E8E97",
"S c #8C8C98",
"D c #8C8C99",
"F c #8D8D9A",
"G c #8F8F9B",
"H c #8F8F9C",
"J c #91919F",
"K c #92929E",
"L c #94949F",
"P c #9494A1",
"I c #9696A3",
"U c #9696A4",
"Y c #9998A2",
"T c #9999A6",
"R c #9F9FA7",
"E c #9B9BA9",
"W c #9C9CA9",
"Q c #9C9CAA",
"! c #9D9DAA",
"~ c #A0A0AD",
"^ c #A2A2AF",
"/ c #A5A5B2",
"( c #A6A6B2",
") c #A7A7B3",
"_ c #AAAAB4",
"` c #ABABB6",
"' c #ABABB7",
"] c #B0B0BB",
/* pixels */
"yyyyyyyyyyyyyyyyyyyy",
"tttttt831**>27etywwy",
"wwww7>5dkcckd5>7wwww",
"qqq3>gmmnnnnnnf-<qqq",
"443,xNNNNNNNNmmz><87",
"33;lNZNNCCCNNZCCl*<<",
"3>pZZZZZZZZZZZZZSi><",
">*nFFFhOCDDCOhZZSm=>",
"*7JFGGF&XZZX@ZHHGG5=",
"#pJJJJJF@XX%DPJJJGu*",
"#dIPIJPPZ  ZPPJJJPa#",
"$iUUIIIJO%%OJIIIIUi#",
"#0QT!TPO%II@OPIUIT5#",
"#*LQ!!k+IQEI+kQQWJ-#",
"$*d^^^^^^^^^^^^~~d*#",
"$$:L)///////////A-##",
"##$<W````````))Y2*##",
"###*>V]]]]]]]]B>*###",
"#####>evR)`^be>#####",
"#######-:**->*######"
};
