/* XPM */
static char *close_focus[] = {
/* columns rows colors chars-per-pixel */
"20 20 94 2 ",
"   c #0E0E10",
".  c #27272B",
"X  c #28282A",
"o  c #29292D",
"O  c #2B2B2F",
"+  c #2D2D31",
"@  c #303034",
"#  c #3C3A37",
"$  c #3C3B37",
"%  c #3C3C37",
"&  c #35353A",
"*  c #36363B",
"=  c #3D3B38",
"-  c #3E3D39",
";  c #3F3E3A",
":  c #3F3F3B",
">  c #403F3B",
",  c #403F3C",
"<  c #40403C",
"1  c #43413D",
"2  c #44423E",
"3  c #44433E",
"4  c #47453F",
"5  c #48463F",
"6  c #454442",
"7  c #484741",
"8  c #484745",
"9  c #4A4841",
"0  c #4D4B43",
"q  c #4C4C45",
"w  c #4E4D46",
"e  c #4D4C4B",
"r  c #504E46",
"t  c #525149",
"y  c #55534C",
"u  c #58564F",
"i  c #525250",
"p  c #59595B",
"a  c #5C5C5E",
"s  c #5E5E61",
"d  c #636367",
"f  c #676769",
"g  c #6C6C72",
"h  c #6B6B75",
"j  c #74747B",
"k  c #77777F",
"l  c #777781",
"z  c #797981",
"x  c #7A7A83",
"c  c #7B7B85",
"v  c #7C7B86",
"b  c #848489",
"n  c #86858B",
"m  c #83838E",
"M  c #858591",
"N  c #888893",
"B  c #8C8C93",
"V  c #888894",
"C  c #8A8A96",
"Z  c #8B8B97",
"A  c #8C8C99",
"S  c #8D8D9A",
"D  c #8E8E9B",
"F  c #8F8F9B",
"G  c #8F8F9C",
"H  c #92929D",
"J  c #92929E",
"K  c #94949F",
"L  c #9393A0",
"P  c #9393A1",
"I  c #9494A1",
"U  c #9696A3",
"Y  c #9696A4",
"T  c #9898A5",
"R  c #9898A6",
"E  c #9999A6",
"W  c #9B9BA9",
"Q  c #9E9EA8",
"!  c #9C9CAA",
"~  c #9D9DAA",
"^  c #A0A0AD",
"/  c #A1A1AE",
"(  c #A2A2AE",
")  c #A2A2AF",
"_  c #A5A5AD",
"`  c #A7A7AF",
"'  c #A5A5B2",
"]  c #A6A6B3",
"[  c #A7A7B3",
"{  c #ABABB6",
"}  c #ABABB7",
"|  c #AFAFBB",
" . c #B0B0BB",
".. c #B2B2BC",
/* pixels */
"u u u u u u u u u u y u u u u u u u u u ",
"y y y y y t q 6 2 , ; 2 9 q y y y y y y ",
"t t t t q 1 i n `  . .` b i 6 q t t t y ",
"r r r 7 6 B  .|  . . . . . .B 2 9 r r q ",
"0 0 5 6 ~ { } } { { } { { { { T 7 9 0 0 ",
"9 7 > K [ [ [ [ ' [ [ [ [ [ ( [ S ; 7 9 ",
"4 2 f ( ( ( ( ( ^ ( ( ( ( ( ( ^ ( f 1 4 ",
"1 > K ~ ~ ~ z + T W W E + l W W E J ; 1 ",
"> e W Y W Y E & o P P o & Y E E R R e ; ",
"# a T T E P T P * . . & P U U U R P a % ",
"# f P P P P P P A     S P P P K P P d % ",
"# a J J J J J A . @ @ o A J J J S J p # ",
"# e S S G G Z . @ S Z o . Z G S S G e # ",
"; # N S S A h O Z B S Z o h S S Z m ; # ",
"# ; s Z Z V Z Z A Z V Z Z Z Z Z Z s : % ",
"% # ; l V N N V V N N N N N N N z : # # ",
"# % $ 1 z N N m M M N M M M M c < ; # % ",
"% # % # < h m m m m m m m m g ; # # % # ",
"# % # % # : q f l v v j d 8 : % # % # % ",
"% # % # # # # : : ; ; : ; # % # % # % # "
};
