/* XPM */
static char * close_unfocused2_xpm[] = {
"21 21 36 1",
" 	c None",
".	c #ACACAC",
"+	c #888888",
"@	c #5B5B5B",
"#	c #5C5C5C",
"$	c #454545",
"%	c #575757",
"&	c #414141",
"*	c #737373",
"=	c #535353",
"-	c #3E3E3E",
";	c #6E6E6E",
">	c #4F4F4F",
",	c #3B3B3B",
"'	c #6A6A6A",
")	c #4C4C4C",
"!	c #383838",
"~	c #666666",
"{	c #A3A3A3",
"]	c #4B4B4B",
"^	c #656565",
"/	c #A2A2A2",
"(	c #484848",
"_	c #363636",
":	c #626262",
"<	c #A0A0A0",
"[	c #292929",
"}	c #1E1E1E",
"|	c #3C3C3C",
"1	c #898989",
"2	c #262626",
"3	c #1C1C1C",
"4	c #373737",
"5	c #868686",
"6	c #252525",
"7	c #1F1F1F",
".....................",
"+++++++++++++++++++++",
"@@@@@@@@@@@@@@@@@@@@@",
"###$$$$$$$$$$$$$$$###",
"%%%&*************&%%%",
"===-;;;;;;;;;;;;;-===",
">>>,''''''''''''',>>>",
")))!~~~{{~~~{{~~~!)))",
"]]]!^^^///^///^^^!]]]",
"(((_::::<<<<<::::_(((",
"[[[}|||||111|||||}[[[",
"222344445555544443222",
"222344455545554443222",
"222344455444554443222",
"222344444444444443222",
"222344444444444443222",
"222344444444444443222",
"222333333333333333222",
"666666666666666666666",
"666666666666666666622",
"777777777777777777777"};
