/* XPM */
static char * close_unfocused1_xpm[] = {
"21 21 36 1",
" 	c None",
".	c #D4D4D4",
"+	c #B4B4B4",
"@	c #818181",
"#	c #838383",
"$	c #626262",
"%	c #7D7D7D",
"&	c #5D5D5D",
"*	c #9A9A9A",
"=	c #787878",
"-	c #595959",
";	c #949494",
">	c #737373",
",	c #565656",
"'	c #8F8F8F",
")	c #6F6F6F",
"!	c #535353",
"~	c #8C8C8C",
"{	c #B9B9B9",
"]	c #6E6E6E",
"^	c #525252",
"/	c #8B8B8B",
"(	c #6B6B6B",
"_	c #505050",
":	c #888888",
"<	c #B7B7B7",
"[	c #424242",
"}	c #313131",
"|	c #9B9B9B",
"1	c #3D3D3D",
"2	c #2D2D2D",
"3	c #545454",
"4	c #989898",
"5	c #3C3C3C",
"6	c #333333",
"7	c #323232",
".....................",
"+++++++++++++++++++++",
"@@@@@@@@@@@@@@@@@@@@@",
"###$$$$$$$$$$$$$$$###",
"%%%&*************&%%%",
"===-;;;;;;;;;;;;;-===",
">>>,''''''''''''',>>>",
")))!~~~{{~~~{{~~~!)))",
"]]]^///{{{/{{{///^]]]",
"(((_::::<<<<<::::_(((",
"[[[}-----|||-----}[[[",
"111233334444433332111",
"111233344434443332111",
"111233344333443332111",
"111233333333333332111",
"111233333333333332111",
"111233333333333332111",
"111222222222222222111",
"555555555555555555555",
"555555555555555555511",
"666666677777777777776"};
