/* XPM */
static char * maximize_unfocused2_xpm[] = {
"21 21 35 1",
" 	c None",
".	c #ACACAC",
"+	c #888888",
"@	c #5B5B5B",
"#	c #5C5C5C",
"$	c #454545",
"%	c #575757",
"&	c #414141",
"*	c #737373",
"=	c #535353",
"-	c #3E3E3E",
";	c #6E6E6E",
">	c #4F4F4F",
",	c #3B3B3B",
"'	c #6A6A6A",
")	c #4C4C4C",
"!	c #383838",
"~	c #666666",
"{	c #4B4B4B",
"]	c #656565",
"^	c #A2A2A2",
"/	c #484848",
"(	c #363636",
"_	c #626262",
":	c #A0A0A0",
"<	c #292929",
"[	c #1E1E1E",
"}	c #3C3C3C",
"|	c #898989",
"1	c #262626",
"2	c #1C1C1C",
"3	c #373737",
"4	c #868686",
"5	c #252525",
"6	c #1F1F1F",
".....................",
"+++++++++++++++++++++",
"@@@@@@@@@@@@@@@@@@@@@",
"###$$$$$$$$$$$$$$$###",
"%%%&*************&%%%",
"===-;;;;;;;;;;;;;-===",
">>>,''''''''''''',>>>",
")))!~~~~~~~~~~~~~!)))",
"{{{!]]]^^^^^^^]]]!{{{",
"///(___:::::::___(///",
"<<<[}}}|}}}}}|}}}[<<<",
"111233343333343332111",
"111233343333343332111",
"111233344444443332111",
"111233333333333332111",
"111233333333333332111",
"111233333333333332111",
"111222222222222222111",
"555555555555555555555",
"555555555555555555511",
"666666666666666666666"};
