/* XPM */
static char * menu_highlight_xpm[] = {
"21 21 21 1",
" 	c None",
".	c #F5F5F5",
"+	c #BEBEBE",
"@	c #CFCFCF",
"#	c #CECECE",
"$	c #CDCDCD",
"%	c #CCCCCC",
"&	c #CACACA",
"*	c #C9C9C9",
"=	c #C7C7C7",
"-	c #C6C6C6",
";	c #C5C5C5",
">	c #C4C4C4",
",	c #C2C2C2",
"'	c #C1C1C1",
")	c #BFBFBF",
"!	c #BDBDBD",
"~	c #BCBCBC",
"{	c #BABABA",
"]	c #B9B9B9",
"^	c #B7B7B7",
".....................",
".....................",
".....................",
".....................",
".....................",
".....................",
".....................",
".....................",
".....................",
".....................",
"+++++++++++++++++++++",
"@@@@@@@@@@@@@@@@@####",
"$$%%%%%%%%%%%%%%%%%%%",
"&&&&&&&&&************",
"================-----",
";>>>>>>>>>>>>>>>>>>>>",
",,,,,,,,,''''''''''''",
")))))))))))))))))))))",
"!~~~~~~~~~~~~~~~~~~~~",
"{{{{{{{{{{{{{{{{{{{]]",
"^^^^^^^^^^^^^^^^^^^^^"};
