/* XPM */
static char * minimize_unfocused1_xpm[] = {
"21 21 33 1",
" 	c None",
".	c #D4D4D4",
"+	c #B4B4B4",
"@	c #818181",
"#	c #838383",
"$	c #626262",
"%	c #7D7D7D",
"&	c #5D5D5D",
"*	c #9A9A9A",
"=	c #787878",
"-	c #595959",
";	c #949494",
">	c #737373",
",	c #565656",
"'	c #8F8F8F",
")	c #6F6F6F",
"!	c #535353",
"~	c #8C8C8C",
"{	c #6E6E6E",
"]	c #525252",
"^	c #8B8B8B",
"/	c #6B6B6B",
"(	c #505050",
"_	c #888888",
":	c #424242",
"<	c #313131",
"[	c #3D3D3D",
"}	c #2D2D2D",
"|	c #545454",
"1	c #989898",
"2	c #3C3C3C",
"3	c #333333",
"4	c #323232",
".....................",
"+++++++++++++++++++++",
"@@@@@@@@@@@@@@@@@@@@@",
"###$$$$$$$$$$$$$$$###",
"%%%&*************&%%%",
"===-;;;;;;;;;;;;;-===",
">>>,''''''''''''',>>>",
")))!~~~~~~~~~~~~~!)))",
"{{{]^^^^^^^^^^^^^]{{{",
"///(_____________(///",
":::<-------------<:::",
"[[[}|||||||||||||}[[[",
"[[[}|||)))))))|||}[[[",
"[[[}|||1111111|||}[[[",
"[[[}|||||||||||||}[[[",
"[[[}|||||||||||||}[[[",
"[[[}|||||||||||||}[[[",
"[[[}}}}}}}}}}}}}}}[[[",
"222222222222222222222",
"2222222222222222222[[",
"333333344444444444443"};
