/* XPM */
static char * minimize_unfocused2_xpm[] = {
"21 21 33 1",
" 	c None",
".	c #ACACAC",
"+	c #888888",
"@	c #5B5B5B",
"#	c #5C5C5C",
"$	c #454545",
"%	c #575757",
"&	c #414141",
"*	c #737373",
"=	c #535353",
"-	c #3E3E3E",
";	c #6E6E6E",
">	c #4F4F4F",
",	c #3B3B3B",
"'	c #6A6A6A",
")	c #4C4C4C",
"!	c #383838",
"~	c #666666",
"{	c #4B4B4B",
"]	c #656565",
"^	c #484848",
"/	c #363636",
"(	c #626262",
"_	c #292929",
":	c #1E1E1E",
"<	c #3C3C3C",
"[	c #262626",
"}	c #1C1C1C",
"|	c #373737",
"1	c #565656",
"2	c #868686",
"3	c #252525",
"4	c #1F1F1F",
".....................",
"+++++++++++++++++++++",
"@@@@@@@@@@@@@@@@@@@@@",
"###$$$$$$$$$$$$$$$###",
"%%%&*************&%%%",
"===-;;;;;;;;;;;;;-===",
">>>,''''''''''''',>>>",
")))!~~~~~~~~~~~~~!)))",
"{{{!]]]]]]]]]]]]]!{{{",
"^^^/(((((((((((((/^^^",
"___:<<<<<<<<<<<<<:___",
"[[[}|||||||||||||}[[[",
"[[[}|||1111111|||}[[[",
"[[[}|||2222222|||}[[[",
"[[[}|||||||||||||}[[[",
"[[[}|||||||||||||}[[[",
"[[[}|||||||||||||}[[[",
"[[[}}}}}}}}}}}}}}}[[[",
"333333333333333333333",
"3333333333333333333[[",
"444444444444444444444"};
