/* XPM */
static char * stuck_unfocused2_xpm[] = {
"21 21 31 1",
" 	c None",
".	c #ACACAC",
"+	c #888888",
"@	c #5B5B5B",
"#	c #5C5C5C",
"$	c #454545",
"%	c #575757",
"&	c #414141",
"*	c #878787",
"=	c #535353",
"-	c #3E3E3E",
";	c #818181",
">	c #4F4F4F",
",	c #3B3B3B",
"'	c #7C7C7C",
")	c #4C4C4C",
"!	c #383838",
"~	c #797979",
"{	c #FFFFFF",
"]	c #4B4B4B",
"^	c #787878",
"/	c #484848",
"(	c #363636",
"_	c #747474",
":	c #292929",
"<	c #1E1E1E",
"[	c #262626",
"}	c #1C1C1C",
"|	c #434343",
"1	c #252525",
"2	c #1F1F1F",
".....................",
"+++++++++++++++++++++",
"@@@@@@@@@@@@@@@@@@@@@",
"###$$$$$$$$$$$$$$$###",
"%%%&*************&%%%",
"===-;;;;;;;;;;;;;-===",
">>>,''''''''''''',>>>",
")))!~~~~~~{~~~~~~!)))",
"]]]!^^^^^^{^^^^^^!]]]",
"///(______{______(///",
":::<///{{{{{{{///<:::",
"[[[}||||||{||||||}[[[",
"[[[}||||||{||||||}[[[",
"[[[}||||||{||||||}[[[",
"[[[}|||||||||||||}[[[",
"[[[}|||||||||||||}[[[",
"[[[}|||||||||||||}[[[",
"[[[}}}}}}}}}}}}}}}[[[",
"111111111111111111111",
"1111111111111111111[[",
"222222222222222222222"};
