/* XPM */
static char * close_pressed_xpm[] = {
"18 18 45 1",
" 	c None",
".	c #999999",
"+	c #979797",
"@	c #949494",
"#	c #919191",
"$	c #8E8E8E",
"%	c #9B9B9B",
"&	c #A8A8A8",
"*	c #8B8B8B",
"=	c #A5A5A5",
"-	c #FFFFFF",
";	c #B2B2B2",
">	c #989898",
",	c #888888",
"'	c #A2A2A2",
")	c #B0B0B0",
"!	c #A3A3A3",
"~	c #858585",
"{	c #929292",
"]	c #ADADAD",
"^	c #CACACA",
"/	c #828282",
"(	c #909090",
"_	c #ABABAB",
":	c #808080",
"<	c #9C9C9C",
"[	c #C6C6C6",
"}	c #7D7D7D",
"|	c #8C8C8C",
"1	c #A9A9A9",
"2	c #7A7A7A",
"3	c #898989",
"4	c #A7A7A7",
"5	c #C3C3C3",
"6	c #777777",
"7	c #969696",
"8	c #A4A4A4",
"9	c #959595",
"0	c #747474",
"a	c #939393",
"b	c #838383",
"c	c #717171",
"d	c #6E6E6E",
"e	c #6B6B6B",
"f	c #696969",
"..................",
"++++++++++++++++++",
"@@@@@@@@@@@@@@@@@@",
"##################",
"$$$$%&&%$$$%&&%$$$",
"****=--;>*>;--=***",
",,,,'---)!)---',,,",
"~~~~{]---^---]{~~~",
"/////(_-----_(////",
"::::::<[---[<:::::",
"}}}}}|1-----1|}}}}",
"222234---5---43222",
"66667---898---7666",
"0000a--'b0b'--a000",
"cccc:((:ccc:((:ccc",
"dddddddddddddddddd",
"eeeeeeeeeeeeeeeeee",
"ffffffffffffffffff"};
