/* XPM */
static char * max_pressed_xpm[] = {
"18 18 36 1",
" 	c None",
".	c #999999",
"+	c #979797",
"@	c #949494",
"#	c #919191",
"$	c #8E8E8E",
"%	c #9B9B9B",
"&	c #A8A8A8",
"*	c #B5B5B5",
"=	c #8B8B8B",
"-	c #A5A5A5",
";	c #FFFFFF",
">	c #888888",
",	c #B0B0B0",
"'	c #858585",
")	c #AEAEAE",
"!	c #C8C8C8",
"~	c #ADADAD",
"{	c #828282",
"]	c #ACACAC",
"^	c #808080",
"/	c #AAAAAA",
"(	c #7D7D7D",
"_	c #7A7A7A",
":	c #A6A6A6",
"<	c #777777",
"[	c #A4A4A4",
"}	c #C3C3C3",
"|	c #747474",
"1	c #939393",
"2	c #717171",
"3	c #909090",
"4	c #9F9F9F",
"5	c #6E6E6E",
"6	c #6B6B6B",
"7	c #696969",
"..................",
"++++++++++++++++++",
"@@@@@@@@@@@@@@@@@@",
"##################",
"$$$$%&*******&%$$$",
"====-;;;;;;;;;-===",
">>>>,;;;;;;;;;,>>>",
"'''');!~~~~~!;)'''",
"{{{{];]{{{{{];]{{{",
"^^^^/;/^^^^^/;/^^^",
"((((&;&(((((&;&(((",
"____:;:_____:;:___",
"<<<<[;}-----};[<<<",
"||||1;;;;;;;;;1|||",
"2222^344444443^222",
"555555555555555555",
"666666666666666666",
"777777777777777777"};
