/* XPM */
static char * min_pressed_xpm[] = {
"18 18 27 1",
" 	c None",
".	c #999999",
"+	c #979797",
"@	c #949494",
"#	c #919191",
"$	c #8E8E8E",
"%	c #8B8B8B",
"&	c #888888",
"*	c #858585",
"=	c #828282",
"-	c #808080",
";	c #7D7D7D",
">	c #7A7A7A",
",	c #898989",
"'	c #989898",
")	c #A7A7A7",
"!	c #777777",
"~	c #969696",
"{	c #FFFFFF",
"]	c #747474",
"^	c #939393",
"/	c #717171",
"(	c #909090",
"_	c #9F9F9F",
":	c #6E6E6E",
"<	c #6B6B6B",
"[	c #696969",
"..................",
"++++++++++++++++++",
"@@@@@@@@@@@@@@@@@@",
"##################",
"$$$$$$$$$$$$$$$$$$",
"%%%%%%%%%%%%%%%%%%",
"&&&&&&&&&&&&&&&&&&",
"******************",
"==================",
"------------------",
";;;;;;;;;;;;;;;;;;",
">>>>,')))))))',>>>",
"!!!!~{{{{{{{{{~!!!",
"]]]]^{{{{{{{{{^]]]",
"////-(_______(-///",
"::::::::::::::::::",
"<<<<<<<<<<<<<<<<<<",
"[[[[[[[[[[[[[[[[[["};
