/* XPM */
static char * close_xpm[] = {
"16 16 3 1",
" 	c None",
".	c #222222",
"+	c #C3C3C3",
"................",
"................",
"................",
"................",
"................",
".....+...+......",
"......+.+.......",
".......+........",
"......+.+.......",
".....+...+......",
"................",
"................",
"................",
"................",
"................",
"................"};
