/* XPM */
static char *close_focus[] = {
/* columns rows colors chars-per-pixel */
"20 20 113 2 ",
"   c #170C05",
".  c #3F230E",
"X  c #3C3B37",
"o  c #3D3B37",
"O  c #3D3C38",
"+  c #41230B",
"@  c #47250B",
"#  c #41230C",
"$  c #42250F",
"%  c #4A270D",
"&  c #512B0F",
"*  c #522B0F",
"=  c #4A2C15",
"-  c #552F12",
";  c #573114",
":  c #423D35",
">  c #443D35",
",  c #443E34",
"<  c #403F3A",
"1  c #58442F",
"2  c #41403B",
"3  c #454039",
"4  c #45433E",
"5  c #4A463F",
"6  c #6F4A2C",
"7  c #714C2E",
"8  c #4A4640",
"9  c #4A4740",
"0  c #4C4942",
"q  c #4D4B45",
"w  c #4C4B46",
"e  c #504E46",
"r  c #5C5345",
"t  c #515048",
"y  c #55534C",
"u  c #58564F",
"i  c #745C43",
"p  c #785D44",
"a  c #715F4A",
"s  c #73604B",
"d  c #AD5B1B",
"f  c #B15D1C",
"g  c #8E572C",
"h  c #915A2D",
"j  c #925A2E",
"k  c #935C2F",
"l  c #935C30",
"z  c #955F34",
"x  c #966036",
"c  c #976036",
"v  c #97663D",
"b  c #986238",
"n  c #B86E34",
"m  c #DB690F",
"M  c #D56710",
"N  c #DE6C13",
"B  c #DE6D13",
"V  c #DC6B14",
"C  c #DC6C14",
"Z  c #D76B19",
"A  c #D66D19",
"S  c #E06F17",
"D  c #E07017",
"F  c #E2721B",
"G  c #E3721B",
"H  c #E3731B",
"J  c #E3731C",
"K  c #E5761F",
"L  c #E27623",
"P  c #E57620",
"I  c #E77823",
"U  c #E77923",
"Y  c #E37826",
"T  c #E57A27",
"R  c #E87924",
"E  c #EA7C27",
"W  c #E77B28",
"Q  c #E67B2B",
"!  c #E47B2D",
"~  c #E47C2D",
"^  c #EA7C28",
"/  c #EC7F2B",
"(  c #EC7F2C",
")  c #ED7F2C",
"_  c #936843",
"`  c #EF8230",
"'  c #EE8333",
"]  c #EF8333",
"[  c #EB8336",
"{  c #F18534",
"}  c #F28534",
"|  c #F18637",
" . c #F48838",
".. c #B7946C",
"X. c #EB8C42",
"o. c #F29044",
"O. c #F29045",
"+. c #F29145",
"@. c #F19850",
"#. c #F19851",
"$. c #F19951",
"%. c #EFA05C",
"&. c #EFA15D",
"*. c #EFA15E",
"=. c #DDB07D",
"-. c #E2A266",
";. c #E4A166",
":. c #EEA869",
">. c #EEA96A",
",. c #E9AF74",
"<. c #ECB175",
"1. c #ECB176",
"2. c #EABA83",
/* pixels */
"u u u u u u u u u u u u u u u u u u u u ",
"y y y q 8 2 X X X X X X X X 2 5 w y y y ",
"t t 8 r ..=.2.2.2.2.2.2.2.2.=...r 5 t t ",
"e 5 s ,.1.1.1.1.1.1.1.<.1.1.1.1.,.s 9 t ",
"0 3 ;.:.:.:.:.:.:.:.>.:.:.:.:.:.>.-.2 0 ",
"4 p %.%.%.%.%.%.*.*.%.*.%.%.%.%.*.%.i 4 ",
"2 _ @.@.@.@.@.@.$.$.@.$.$.$.@.$.@.@._ 2 ",
"2 v o.o.o.o.n = X.o.o.X.= n +.+.o.o.v 2 ",
"< b  . . . .{ ; $ [ [ $ ; {  . . . .b o ",
"o b ] ] { { { ` ; $ . - ' { { { } } b o ",
"o c ] ] ] ` ` ` ~     ~ ` ` ] ] ` ` z o ",
"o k T ) ) ) ) Q . & & + Q ) ) ) ) ) k o ",
"o k E E E E T + & E T % + Y E ^ T ) k o ",
"o h U U I I d @ L R R L @ f I E R E h o ",
"o g K K K K K K K K K K K I K K K K g X ",
"o 7 F F G G G G F F G F F G F F F F 6 X ",
"o O Z B S S S S m G S D S D D D D A : X ",
"X 3 6 V B V V B S V N N m S V B B 6 , X ",
"X X , 1 d M m m m m m m m m M f 1 X X X ",
"X X o o , o o o o o o o X X X , o o X X "
};
