/* XPM */
static char *close_pressed[] = {
/* columns rows colors chars-per-pixel */
"20 20 93 2 ",
"   c #170C05",
".  c #3C3B37",
"X  c #3D3C38",
"o  c #3E3D39",
"O  c #42220B",
"+  c #43230E",
"@  c #4B260B",
"#  c #572D0F",
"$  c #432410",
"%  c #4A2912",
"&  c #562C10",
"*  c #542D13",
"=  c #453E36",
"-  c #423E38",
";  c #434039",
":  c #41403B",
">  c #45433E",
",  c #4A433B",
"<  c #4A443A",
"1  c #4B443C",
"2  c #5E4731",
"3  c #594E3D",
"4  c #774D2E",
"5  c #7A4F2F",
"6  c #764F30",
"7  c #73563D",
"8  c #75573D",
"9  c #4C4942",
"0  c #4C4B45",
"q  c #4D4B45",
"w  c #504E46",
"e  c #515048",
"r  c #55534C",
"t  c #58564F",
"y  c #6E5940",
"u  c #BB5E1C",
"i  c #965A2D",
"p  c #975E34",
"a  c #975F37",
"s  c #985C30",
"d  c #96613A",
"f  c #91623D",
"g  c #93623C",
"h  c #B7662E",
"j  c #C1621D",
"k  c #C1631D",
"l  c #EA6F15",
"z  c #EC721B",
"x  c #EB741B",
"c  c #F47417",
"v  c #F77516",
"b  c #F87312",
"n  c #F7761A",
"m  c #F6771A",
"M  c #F6781D",
"N  c #EE7824",
"B  c #E77A2D",
"V  c #EB7928",
"C  c #E87A2D",
"Z  c #F57A21",
"A  c #F57B25",
"S  c #F17C29",
"D  c #F17D2B",
"F  c #F47D29",
"G  c #F47E2C",
"H  c #F47E2D",
"J  c #EB7D32",
"K  c #EA7F35",
"L  c #EA7F36",
"P  c #ED8037",
"I  c #EA823A",
"U  c #F38030",
"Y  c #F38134",
"T  c #F28337",
"R  c #F28338",
"E  c #F1863D",
"W  c #B08552",
"Q  c #DD934E",
"!  c #ED8C43",
"~  c #ED8D43",
"^  c #EE8C42",
"/  c #EA924A",
"(  c #EA934A",
")  c #E79850",
"_  c #E79950",
"`  c #E19D56",
"'  c #E39E57",
"]  c #E39F57",
"[  c #E49E56",
"{  c #D9A05B",
"}  c #D9A15B",
"|  c #E0A45D",
" . c #E0A55D",
/* pixels */
"t t t t t t t t t t t t t t t t t t t t ",
"r r r q 1 ; o o . . o . . . : , 0 r r r ",
"e e , 2 k l b b b b b b b b l j 2 < e e ",
"w 1 4 c v v c c c v v v v v b c c 5 < w ",
"9 = z n n n n n n m m n n m m m m x - 9 ",
"> 5 M M M M M M M M M Z m M M M M M 6 > ",
": i Z Z Z Z Z Z Z Z Z Z Z Z Z Z Z Z i : ",
": i A A A A u @ N A A N @ u A A A A i : ",
"o s D A F F D # O V B O & D F F D A s o ",
"o s U H F D D D # O O & D G G F H H s o ",
". s Y U Y G H Y B     B G Y G Y Y U p . ",
"o a Y Y Y Y Y P + & * O J Y Y Y Y Y p . ",
". a Y T R R J + * R L % $ P Y R Y T d . ",
". d E T E R h % I E E L % h E E E E d . ",
". g ^ ~ ^ ^ ^ ~ ! ! ~ ~ ~ ~ ~ ~ ^ ~ f . ",
". 8 ( ( / / / ( / / ( / / ( ( ( ( / 7 . ",
". = Q _ _ _ _ _ _ _ _ _ _ _ _ _ _ Q = o ",
". : 7 ` ` ` [ [ [ [ [ ` [ [ ] ] ` y - . ",
". . : 3 W { | | | | | | | { { W 3 : . . ",
". . o . = . . . . . o . o . - = o . . . "
};
