/* XPM */
static char *maximize_focus[] = {
/* columns rows colors chars-per-pixel */
"20 20 66 1 ",
"  c #3C3B37",
". c #3D3C38",
"X c #3D3D39",
"o c #3E3C38",
"O c #3E3E39",
"+ c #413F3A",
"@ c #41403B",
"# c #43423E",
"$ c #44433E",
"% c #46433E",
"& c #44443F",
"* c #464540",
"= c #484742",
"- c #4B4942",
"; c #4D4B43",
": c #4B4A46",
"> c #4E4B44",
", c #4C4B46",
"< c #4E4E46",
"1 c #504E46",
"2 c #504F4B",
"3 c #525149",
"4 c #55534C",
"5 c #58564F",
"6 c #555550",
"7 c #575651",
"8 c #585752",
"9 c #595853",
"0 c #5B5A54",
"q c #5B5B55",
"w c #5E5E58",
"e c #605F59",
"r c #62605C",
"t c #62625D",
"y c #64645E",
"u c #66645E",
"i c #676760",
"p c #666661",
"a c #686862",
"s c #6B6A64",
"d c #6B6A65",
"f c #6D6C66",
"g c #6E6D67",
"h c #6E6D68",
"j c #6F6F68",
"k c #70706B",
"l c #72716A",
"z c #72726C",
"x c #73736C",
"c c #74736C",
"v c #76756E",
"b c #77756F",
"n c #777570",
"m c #767671",
"M c #787871",
"N c #797871",
"B c #7B7A73",
"V c #7B7A74",
"C c #7F7E77",
"Z c #7F7E78",
"A c #83827B",
"S c #83827C",
"D c #86867F",
"F c #868680",
"G c #8A8A83",
"H c #8A8A84",
/* pixels */
"55557555559495558555",
"44444444444444444344",
"3333<==*=%-%%=;<3333",
"11>*2dkzczzzxki3%111",
";-*mHHHHHGGGGGGGb&%;",
"-$zFFFFFFDDDDDDDDj&;",
"$>SSSSSSSASAAAAAAA<%",
"+rZZZZmfjffjfbCCCCr@",
"+yBBVVq&<>;:#qBBBBy@",
"+yBMMMqqMmMM7qMBMMyO",
"XrMcxMq8mbbb9qbcbbrX",
"Xrkbxx88cckb74ccccro",
"Xrkkxx48jckx77zzxxwo",
"@qljjj42rrrr37jjkfwo",
"o9ffffq--%===qdfff8o",
"o2ssasssssssssddfa2o",
"o@siasaaisiiissaaaXX",
" o%yiyyyuyiiyiyay-o ",
"   $0tyyryyyyyrq#o  ",
"    @X@X@o@o+oXX    "
};
