/* XPM */
static char *minimize_unfocus[] = {
/* columns rows colors chars-per-pixel */
"20 20 54 1 ",
"  c #3C3B37",
". c #3D3C38",
"X c #3E3C38",
"o c #3E3D3A",
"O c #413F3B",
"+ c #43433D",
"@ c #45433D",
"# c #46433E",
"$ c #464540",
"% c #474641",
"& c #474642",
"* c #484741",
"= c #494842",
"- c #4B4942",
"; c #4D4B43",
": c #4E4B44",
"> c #4C4B47",
", c #4E4E46",
"< c #504E46",
"1 c #525149",
"2 c #55534C",
"3 c #55544D",
"4 c #54544E",
"5 c #58564F",
"6 c #565550",
"7 c #565651",
"8 c #595851",
"9 c #585853",
"0 c #595853",
"q c #5B5B54",
"w c #5C5C54",
"e c #5D5D55",
"r c #5E5E56",
"t c #5F5E57",
"y c #615F59",
"u c #616159",
"i c #60605A",
"p c #61615B",
"a c #62615B",
"s c #62625C",
"d c #63635C",
"f c #64635D",
"g c #64645D",
"h c #65645D",
"j c #65655E",
"k c #66655E",
"l c #67675F",
"z c #68675F",
"x c #696860",
"c c #6A6961",
"v c #6A6A61",
"b c #6B6B62",
"n c #6C6B62",
"m c #6D6D63",
/* pixels */
"55554353555555556055",
"22222433333533332222",
"1111,--@@@@@@*@<1111",
"<<:+-8tttttttt5;@:<<",
";-+unnnnmmnbnnnmuO-,",
"*+tnnnbbnnbbbbnnci+$",
"@*ccccccbbbbbbbbbx$$",
"O3czcccxxxxllxclkx4O",
"O9kxzzzzllllllljjx9.",
"X9jxzzgzllljlljlxx9.",
"X9kkgkyqwtttqujjxp9.",
"X6kkkk6$@@+@$3jjjk6X",
"X6kkkkskskfkjsggkj6X",
"X6jjsfhskfffjshggs9X",
" 2jishhsshfshyhhss4 ",
"X>jsksyksysfyhssjs> ",
".Xiusujissjusspssio ",
"..$jjiuiisiisiiju$X ",
". .+9pisjisjiji9$   ",
"    oooXooXoXoXo    "
};
